<?xml version="1.0" encoding="utf-8"?>
<!-- Generator: Adobe Illustrator 17.0.0, SVG Export Plug-In . SVG Version: 6.00 Build 0)  -->
<!DOCTYPE svg PUBLIC "-//W3C//DTD SVG 1.1//EN" "http://www.w3.org/Graphics/SVG/1.1/DTD/svg11.dtd">
<svg version="1.1" id="Layer_1" xmlns="http://www.w3.org/2000/svg" xmlns:xlink="http://www.w3.org/1999/xlink" x="0px" y="0px"
	 width="943.361px" height="682.73px" viewBox="0 -472.965 943.361 682.73" enable-background="new 0 -472.965 943.361 682.73"
	 xml:space="preserve">
<g>
	<g>
		<path fill="none" stroke="#00ADEE" stroke-width="15.8613" stroke-linecap="round" stroke-miterlimit="10" d="M112.617-401.978
			c-6.219,26.74-69.362,78.783-69.362,78.783S9.547-397.761,15.766-424.501s32.943-43.38,59.683-37.161
			C102.189-455.443,118.837-428.725,112.617-401.978z"/>
		<path fill="none" stroke="#00ADEE" stroke-width="15.8613" stroke-linecap="round" stroke-miterlimit="10" d="M20.17-239.876
			c6.219-26.74,69.362-78.783,69.362-78.783s33.701,74.566,27.482,101.306s-32.943,43.38-59.683,37.16
			C30.591-186.412,13.951-213.136,20.17-239.876z"/>
	</g>
</g>
<g enable-background="new    ">
	<path fill="#00ADEE" d="M143.973-345.505c-0.72,0.593-1.08,1.377-1.08,2.353c0,0.977,0.439,1.752,1.32,2.328
		c0.88,0.576,2.912,1.256,6.096,2.04c3.184,0.784,5.656,1.96,7.416,3.527c1.759,1.568,2.64,3.856,2.64,6.864
		c0,3.009-1.128,5.448-3.384,7.32c-2.256,1.872-5.225,2.808-8.904,2.808c-5.312,0-10.097-1.968-14.352-5.903l4.464-5.473
		c3.616,3.168,6.96,4.752,10.032,4.752c1.375,0,2.456-0.295,3.24-0.888c0.784-0.592,1.176-1.392,1.176-2.4
		c0-1.008-0.417-1.808-1.248-2.399c-0.833-0.592-2.48-1.192-4.944-1.8c-3.905-0.928-6.761-2.137-8.568-3.624
		c-1.808-1.488-2.712-3.824-2.712-7.009c0-3.184,1.144-5.64,3.432-7.367c2.288-1.729,5.144-2.592,8.568-2.592
		c2.24,0,4.48,0.384,6.72,1.151c2.239,0.769,4.191,1.856,5.856,3.264l-3.792,5.473c-2.913-2.208-5.92-3.312-9.024-3.312
		C145.677-346.392,144.692-346.095,143.973-345.505z"/>
	<path fill="#00ADEE" d="M214.171-323.28c-3.392,3.312-7.567,4.968-12.527,4.968c-4.961,0-9.137-1.656-12.528-4.968
		c-3.393-3.312-5.088-7.432-5.088-12.36c0-4.928,1.695-9.048,5.088-12.359c3.392-3.312,7.567-4.968,12.528-4.968
		c4.96,0,9.136,1.655,12.527,4.968c3.392,3.312,5.089,7.432,5.089,12.359C219.26-330.712,217.563-326.593,214.171-323.28z
		 M211.627-335.616c0-2.992-0.96-5.544-2.88-7.656s-4.28-3.168-7.08-3.168s-5.159,1.056-7.08,3.168
		c-1.92,2.112-2.88,4.664-2.88,7.656s0.96,5.536,2.88,7.632c1.921,2.096,4.28,3.144,7.08,3.144s5.16-1.048,7.08-3.144
		S211.627-332.624,211.627-335.616z"/>
	<path fill="#00ADEE" d="M267.835-352.2v6.576h-15.552v7.248h14.784v6.575h-14.784v13.152h-7.488V-352.2H267.835z"/>
	<path fill="#00ADEE" d="M307.579-345.72v27.072h-7.488v-27.072h-9.504v-6.479h26.496v6.479H307.579z"/>
	<path fill="#00ADEE" d="M356.443-318.648h-14.688V-352.2h13.056c2.272,0,4.231,0.272,5.881,0.816
		c1.647,0.544,2.887,1.279,3.72,2.207c1.504,1.729,2.256,3.681,2.256,5.856c0,2.624-0.849,4.576-2.544,5.855
		c-0.576,0.449-0.977,0.729-1.2,0.841c-0.225,0.112-0.624,0.296-1.2,0.552c2.08,0.448,3.736,1.385,4.969,2.808
		c1.231,1.425,1.848,3.192,1.848,5.305c0,2.336-0.801,4.399-2.4,6.191C364.282-319.687,361.05-318.648,356.443-318.648z
		 M349.243-338.616h3.552c2.08,0,3.624-0.224,4.632-0.672s1.512-1.416,1.512-2.904s-0.464-2.472-1.392-2.952
		c-0.929-0.479-2.496-0.72-4.704-0.72h-3.6V-338.616z M349.243-324.984h5.136c2.144,0,3.752-0.264,4.824-0.792
		c1.071-0.528,1.607-1.567,1.607-3.12c0-1.552-0.568-2.575-1.703-3.072c-1.137-0.495-2.952-0.744-5.448-0.744h-4.416V-324.984z"/>
	<path fill="#00ADEE" d="M394.027-318.648V-352.2h7.488v26.88h14.304v6.672H394.027z"/>
	<path fill="#00ADEE" d="M448.65-327.312c1.248,1.553,2.928,2.328,5.04,2.328s3.784-0.775,5.017-2.328
		c1.231-1.552,1.848-3.672,1.848-6.36V-352.2h7.488v18.768c0,4.864-1.345,8.601-4.032,11.208c-2.688,2.608-6.128,3.912-10.32,3.912
		s-7.64-1.312-10.344-3.936c-2.705-2.624-4.056-6.353-4.056-11.185V-352.2h7.487v18.527
		C446.778-330.984,447.402-328.864,448.65-327.312z"/>
	<path fill="#00ADEE" d="M519.211-352.2v6.672h-16.704v6.912h15.023v6.384h-15.023v6.96h17.231v6.624h-24.72V-352.2H519.211z"/>
	<path fill="#00ADEE" d="M553.457-345.505c-0.72,0.593-1.079,1.377-1.079,2.353c0,0.977,0.439,1.752,1.319,2.328
		s2.912,1.256,6.096,2.04c3.185,0.784,5.656,1.96,7.416,3.527c1.76,1.568,2.641,3.856,2.641,6.864c0,3.009-1.128,5.448-3.384,7.32
		c-2.257,1.872-5.225,2.808-8.904,2.808c-5.312,0-10.097-1.968-14.353-5.903l4.465-5.473c3.615,3.168,6.96,4.752,10.031,4.752
		c1.376,0,2.456-0.295,3.24-0.888c0.784-0.592,1.176-1.392,1.176-2.4c0-1.008-0.416-1.808-1.248-2.399s-2.479-1.192-4.943-1.8
		c-3.904-0.928-6.761-2.137-8.568-3.624c-1.809-1.488-2.712-3.824-2.712-7.009c0-3.184,1.144-5.64,3.432-7.367
		c2.288-1.729,5.144-2.592,8.568-2.592c2.239,0,4.479,0.384,6.72,1.151c2.24,0.769,4.192,1.856,5.856,3.264l-3.792,5.473
		c-2.912-2.208-5.921-3.312-9.024-3.312C555.161-346.392,554.178-346.095,553.457-345.505z"/>
	<path fill="#00ADEE" d="M605.896-332.904l5.952-19.296h7.824l5.904,19.296l6.672-19.296h8.111l-11.712,33.552h-5.567l-7.345-23.328
		l-7.296,23.328h-5.567L591.161-352.2h8.111L605.896-332.904z"/>
	<path fill="#00ADEE" d="M663.545-352.2h7.488v33.552h-7.488V-352.2z"/>
	<path fill="#00ADEE" d="M712.696-345.72v27.072h-7.488v-27.072h-9.504v-6.479H722.2v6.479H712.696z"/>
	<path fill="#00ADEE" d="M762.28-325.272c3.68,0,6.688-1.456,9.023-4.368l4.801,4.944c-3.809,4.288-8.297,6.432-13.464,6.432
		c-5.169,0-9.425-1.632-12.769-4.896c-3.344-3.265-5.016-7.384-5.016-12.36c0-4.976,1.704-9.127,5.111-12.456
		c3.408-3.327,7.576-4.991,12.504-4.991c5.504,0,10.112,2.096,13.824,6.287l-4.655,5.28c-2.369-2.943-5.312-4.416-8.832-4.416
		c-2.816,0-5.225,0.92-7.225,2.76c-2,1.841-3,4.32-3,7.44s0.943,5.624,2.832,7.512C757.304-326.216,759.592-325.272,762.28-325.272z
		"/>
	<path fill="#00ADEE" d="M822.039-352.2h7.488v33.552h-7.488v-13.2h-13.344v13.2h-7.488V-352.2h7.488v14.016h13.344V-352.2z"/>
</g>
<text transform="matrix(1 0 0 1 131.9966 -607.111)" fill="#00ADEE" font-family="'Montserrat-Bold'" font-size="48" letter-spacing="19">SOFTBLUESWITCH</text>
</svg>
