<svg width="232" height="37" viewBox="0 0 232 37" fill="none" xmlns="http://www.w3.org/2000/svg">
<path d="M14.848 29.52C14.1547 29.52 13.5653 29.26 13.08 28.74C12.6293 28.22 12.456 27.6133 12.56 26.92L14.744 10.228C14.848 9.46533 15.16 8.85867 15.68 8.408C16.2 7.92267 16.824 7.68 17.552 7.68C19.0427 7.68 20.0133 8.32133 20.464 9.604L24 19.796C24.1733 20.1427 24.3467 20.316 24.52 20.316C24.7627 20.316 24.936 20.1427 25.04 19.796L28.576 9.604C29.0267 8.32133 29.98 7.68 31.436 7.68C32.2333 7.68 32.8747 7.92267 33.36 8.408C33.88 8.85867 34.192 9.46533 34.296 10.228L36.48 26.92C36.584 27.6133 36.3933 28.22 35.908 28.74C35.4573 29.26 34.8853 29.52 34.192 29.52C33.568 29.52 33.0307 29.3293 32.58 28.948C32.164 28.532 31.9213 28.012 31.852 27.388L31.072 16.52C31.0373 16.104 30.8987 15.896 30.656 15.896C30.4133 15.896 30.24 16.0693 30.136 16.416L27.12 24.892C26.6347 26.1747 25.768 26.816 24.52 26.816C24.0347 26.816 23.5493 26.6427 23.064 26.296C22.6133 25.9493 22.2493 25.4987 21.972 24.944L18.956 16.52C18.852 16.208 18.6787 16.052 18.436 16.052C18.228 16.052 18.0893 16.26 18.02 16.676L17.188 27.388C17.1533 28.012 16.9107 28.532 16.46 28.948C16.0093 29.3293 15.472 29.52 14.848 29.52ZM46.8556 29.52C44.533 29.52 42.6436 28.792 41.1876 27.336C39.7663 25.8453 39.0556 23.8693 39.0556 21.408C39.0556 18.9467 39.749 17.0053 41.1356 15.584C42.557 14.128 44.4116 13.4 46.6996 13.4C48.329 13.4 49.7503 13.972 50.9636 15.116C51.1023 14.7 51.3623 14.3533 51.7436 14.076C52.125 13.7987 52.5756 13.66 53.0956 13.66C53.789 13.66 54.3436 13.868 54.7596 14.284C55.2103 14.6653 55.4356 15.1333 55.4356 15.688V27.492C55.4356 28.0813 55.2103 28.5667 54.7596 28.948C54.3436 29.3293 53.789 29.52 53.0956 29.52C51.9516 29.52 51.241 29.0173 50.9636 28.012C49.8543 29.0173 48.485 29.52 46.8556 29.52ZM47.2196 25.308C48.329 25.308 49.213 24.944 49.8716 24.216C50.5303 23.4533 50.8596 22.5173 50.8596 21.408C50.8596 20.264 50.5303 19.3453 49.8716 18.652C49.213 17.9587 48.329 17.612 47.2196 17.612C46.145 17.612 45.261 17.9587 44.5676 18.652C43.909 19.3453 43.5796 20.264 43.5796 21.408C43.5796 22.5173 43.909 23.4533 44.5676 24.216C45.261 24.944 46.145 25.308 47.2196 25.308ZM65.8417 29.52C64.3511 29.52 63.1204 29.0867 62.1497 28.22C61.1791 27.3533 60.6937 26.0187 60.6937 24.216V18.6C60.6937 18.2533 60.5204 18.08 60.1737 18.08H59.3937C58.7697 18.08 58.3017 17.8893 57.9897 17.508C57.6777 17.1267 57.5217 16.6413 57.5217 16.052C57.5217 15.428 57.6777 14.9253 57.9897 14.544C58.3017 14.128 58.7697 13.92 59.3937 13.92H60.1737C60.5204 13.92 60.6937 13.7467 60.6937 13.4V9.552C60.6937 8.96267 60.9017 8.46 61.3177 8.044C61.7337 7.628 62.2711 7.42 62.9297 7.42C63.5884 7.42 64.1257 7.628 64.5417 8.044C64.9924 8.42533 65.2177 8.928 65.2177 9.552V13.4C65.2177 13.7467 65.3911 13.92 65.7377 13.92H67.6617C68.2511 13.92 68.7364 14.128 69.1177 14.544C69.5337 14.96 69.7417 15.4627 69.7417 16.052C69.7417 16.6413 69.5337 17.1267 69.1177 17.508C68.7364 17.8893 68.2337 18.08 67.6097 18.08H65.7377C65.3911 18.08 65.2177 18.2533 65.2177 18.6V23.488C65.2177 24.112 65.3217 24.5453 65.5297 24.788C65.7724 25.0307 66.0671 25.152 66.4137 25.152C66.5524 25.152 66.8297 25.1173 67.2457 25.048C67.6617 24.944 67.9217 24.892 68.0257 24.892C68.5804 24.892 69.0484 25.1 69.4297 25.516C69.8111 25.932 70.0017 26.4347 70.0017 27.024C70.0017 27.4747 69.8631 27.8907 69.5857 28.272C69.3431 28.6533 68.9444 28.9307 68.3897 29.104C67.9391 29.2427 67.5057 29.3467 67.0897 29.416C66.6737 29.4853 66.2577 29.52 65.8417 29.52ZM79.0956 29.52C77.605 29.52 76.3743 29.0867 75.4036 28.22C74.433 27.3533 73.9476 26.0187 73.9476 24.216V18.6C73.9476 18.2533 73.7743 18.08 73.4276 18.08H72.6476C72.0236 18.08 71.5556 17.8893 71.2436 17.508C70.9316 17.1267 70.7756 16.6413 70.7756 16.052C70.7756 15.428 70.9316 14.9253 71.2436 14.544C71.5556 14.128 72.0236 13.92 72.6476 13.92H73.4276C73.7743 13.92 73.9476 13.7467 73.9476 13.4V9.552C73.9476 8.96267 74.1556 8.46 74.5716 8.044C74.9876 7.628 75.525 7.42 76.1836 7.42C76.8423 7.42 77.3796 7.628 77.7956 8.044C78.2463 8.42533 78.4716 8.928 78.4716 9.552V13.4C78.4716 13.7467 78.645 13.92 78.9916 13.92H80.9156C81.505 13.92 81.9903 14.128 82.3716 14.544C82.7876 14.96 82.9956 15.4627 82.9956 16.052C82.9956 16.6413 82.7876 17.1267 82.3716 17.508C81.9903 17.8893 81.4876 18.08 80.8636 18.08H78.9916C78.645 18.08 78.4716 18.2533 78.4716 18.6V23.488C78.4716 24.112 78.5756 24.5453 78.7836 24.788C79.0263 25.0307 79.321 25.152 79.6676 25.152C79.8063 25.152 80.0836 25.1173 80.4996 25.048C80.9156 24.944 81.1756 24.892 81.2796 24.892C81.8343 24.892 82.3023 25.1 82.6836 25.516C83.065 25.932 83.2556 26.4347 83.2556 27.024C83.2556 27.4747 83.117 27.8907 82.8396 28.272C82.597 28.6533 82.1983 28.9307 81.6436 29.104C81.193 29.2427 80.7596 29.3467 80.3436 29.416C79.9276 29.4853 79.5116 29.52 79.0956 29.52ZM101.72 29.52C100.992 29.52 100.333 29.2947 99.7437 28.844C99.1544 28.3587 98.7904 27.7347 98.6517 26.972L95.4797 10.072C95.4104 9.37867 95.601 8.80667 96.0517 8.356C96.537 7.90533 97.1264 7.68 97.8197 7.68C98.409 7.68 98.9117 7.85333 99.3277 8.2C99.7437 8.54667 100.004 9.01467 100.108 9.604L101.98 20.992C102.049 21.408 102.205 21.616 102.448 21.616C102.656 21.616 102.812 21.4253 102.916 21.044L105.412 11.84C105.585 11.1813 105.914 10.696 106.4 10.384C106.885 10.0373 107.405 9.864 107.96 9.864C108.514 9.864 109.034 10.0373 109.52 10.384C110.005 10.696 110.334 11.1813 110.508 11.84L113.004 21.044C113.108 21.4253 113.264 21.616 113.472 21.616C113.749 21.616 113.905 21.408 113.94 20.992L115.812 9.604C115.916 9.01467 116.176 8.54667 116.592 8.2C117.042 7.85333 117.545 7.68 118.1 7.68C118.793 7.68 119.365 7.90533 119.816 8.356C120.301 8.80667 120.509 9.37867 120.44 10.072L117.216 26.972C117.077 27.7347 116.713 28.3587 116.124 28.844C115.534 29.2947 114.876 29.52 114.148 29.52C113.489 29.52 112.865 29.312 112.276 28.896C111.721 28.4453 111.305 27.856 111.028 27.128L108.428 17.976C108.324 17.5947 108.168 17.404 107.96 17.404C107.717 17.404 107.544 17.5947 107.44 17.976L104.84 27.128C104.632 27.856 104.233 28.4453 103.644 28.896C103.054 29.312 102.413 29.52 101.72 29.52ZM126.226 29.52C125.567 29.52 125.013 29.3293 124.562 28.948C124.111 28.5667 123.886 28.0813 123.886 27.492V15.688C123.886 15.1333 124.094 14.6653 124.51 14.284C124.961 13.868 125.533 13.66 126.226 13.66C126.919 13.66 127.457 13.868 127.838 14.284C128.254 14.6653 128.462 15.1507 128.462 15.74V27.44C128.462 28.0293 128.237 28.532 127.786 28.948C127.37 29.3293 126.85 29.52 126.226 29.52ZM126.226 11.06C125.498 11.06 124.874 10.8347 124.354 10.384C123.834 9.89867 123.574 9.292 123.574 8.564C123.574 7.90533 123.834 7.33333 124.354 6.848C124.874 6.36267 125.498 6.12 126.226 6.12C126.919 6.12 127.509 6.36267 127.994 6.848C128.514 7.33333 128.774 7.90533 128.774 8.564C128.774 9.292 128.514 9.89867 127.994 10.384C127.509 10.8347 126.919 11.06 126.226 11.06ZM135.062 29.52C134.403 29.52 133.849 29.3293 133.398 28.948C132.947 28.5667 132.722 28.0813 132.722 27.492V8.148C132.722 7.59333 132.93 7.12533 133.346 6.744C133.797 6.328 134.369 6.12 135.062 6.12C135.721 6.12 136.258 6.328 136.674 6.744C137.09 7.12533 137.298 7.61067 137.298 8.2V27.44C137.298 28.0293 137.073 28.532 136.622 28.948C136.206 29.3293 135.686 29.52 135.062 29.52ZM143.898 29.52C143.239 29.52 142.684 29.3293 142.234 28.948C141.783 28.5667 141.558 28.0813 141.558 27.492V8.148C141.558 7.59333 141.766 7.12533 142.182 6.744C142.632 6.328 143.204 6.12 143.898 6.12C144.556 6.12 145.094 6.328 145.51 6.744C145.926 7.12533 146.134 7.61067 146.134 8.2V27.44C146.134 28.0293 145.908 28.532 145.458 28.948C145.042 29.3293 144.522 29.52 143.898 29.52ZM152.734 29.52C152.075 29.52 151.52 29.3293 151.07 28.948C150.619 28.5667 150.394 28.0813 150.394 27.492V15.688C150.394 15.1333 150.602 14.6653 151.018 14.284C151.468 13.868 152.04 13.66 152.734 13.66C153.427 13.66 153.964 13.868 154.346 14.284C154.762 14.6653 154.97 15.1507 154.97 15.74V27.44C154.97 28.0293 154.744 28.532 154.294 28.948C153.878 29.3293 153.358 29.52 152.734 29.52ZM152.734 11.06C152.006 11.06 151.382 10.8347 150.862 10.384C150.342 9.89867 150.082 9.292 150.082 8.564C150.082 7.90533 150.342 7.33333 150.862 6.848C151.382 6.36267 152.006 6.12 152.734 6.12C153.427 6.12 154.016 6.36267 154.502 6.848C155.022 7.33333 155.282 7.90533 155.282 8.564C155.282 9.292 155.022 9.89867 154.502 10.384C154.016 10.8347 153.427 11.06 152.734 11.06ZM165.938 29.52C163.615 29.52 161.726 28.792 160.27 27.336C158.848 25.8453 158.138 23.8693 158.138 21.408C158.138 18.9467 158.831 17.0053 160.218 15.584C161.639 14.128 163.494 13.4 165.782 13.4C167.411 13.4 168.832 13.972 170.046 15.116C170.184 14.7 170.444 14.3533 170.826 14.076C171.207 13.7987 171.658 13.66 172.178 13.66C172.871 13.66 173.426 13.868 173.842 14.284C174.292 14.6653 174.518 15.1333 174.518 15.688V27.492C174.518 28.0813 174.292 28.5667 173.842 28.948C173.426 29.3293 172.871 29.52 172.178 29.52C171.034 29.52 170.323 29.0173 170.046 28.012C168.936 29.0173 167.567 29.52 165.938 29.52ZM166.302 25.308C167.411 25.308 168.295 24.944 168.954 24.216C169.612 23.4533 169.942 22.5173 169.942 21.408C169.942 20.264 169.612 19.3453 168.954 18.652C168.295 17.9587 167.411 17.612 166.302 17.612C165.227 17.612 164.343 17.9587 163.65 18.652C162.991 19.3453 162.662 20.264 162.662 21.408C162.662 22.5173 162.991 23.4533 163.65 24.216C164.343 24.944 165.227 25.308 166.302 25.308ZM180.764 29.52C180.105 29.52 179.55 29.3293 179.1 28.948C178.649 28.5667 178.424 28.0813 178.424 27.492V15.688C178.424 15.1333 178.632 14.6653 179.048 14.284C179.498 13.868 180.07 13.66 180.764 13.66C181.561 13.66 182.168 13.9373 182.584 14.492C182.757 14.7 182.861 14.908 182.896 15.116C183.312 14.596 183.866 14.18 184.56 13.868C185.253 13.556 186.033 13.4 186.9 13.4C189.257 13.4 190.956 14.18 191.996 15.74C192.62 14.9773 193.382 14.4053 194.284 14.024C195.185 13.608 196.121 13.4 197.092 13.4C199.033 13.4 200.558 13.972 201.668 15.116C202.812 16.26 203.384 18.08 203.384 20.576V27.596C203.384 28.1507 203.158 28.6187 202.708 29C202.292 29.3467 201.754 29.52 201.096 29.52C200.437 29.52 199.882 29.3293 199.432 28.948C199.016 28.5667 198.808 28.0813 198.808 27.492V21.148C198.808 19.8653 198.582 18.9467 198.132 18.392C197.681 17.8373 197.04 17.56 196.208 17.56C195.376 17.56 194.7 17.82 194.18 18.34C193.694 18.8253 193.365 19.4147 193.192 20.108V27.596C193.192 28.1507 192.966 28.6187 192.516 29C192.1 29.3467 191.562 29.52 190.904 29.52C190.245 29.52 189.69 29.3293 189.24 28.948C188.824 28.5667 188.616 28.0813 188.616 27.492V21.148C188.616 19.8653 188.39 18.9467 187.94 18.392C187.489 17.8373 186.848 17.56 186.016 17.56C185.218 17.56 184.56 17.82 184.04 18.34C183.52 18.8253 183.173 19.3973 183 20.056V27.44C183 28.0293 182.774 28.532 182.324 28.948C181.908 29.3293 181.388 29.52 180.764 29.52ZM212.676 29.52C210.318 29.52 208.377 29.0347 206.852 28.064C206.54 27.856 206.314 27.6133 206.176 27.336C206.037 27.024 205.968 26.7293 205.968 26.452C205.968 25.8627 206.158 25.3253 206.54 24.84C206.956 24.3547 207.458 24.112 208.048 24.112C208.325 24.112 208.602 24.1813 208.88 24.32C209.504 24.5973 210.214 24.84 211.012 25.048C211.809 25.2213 212.537 25.308 213.196 25.308C214.478 25.308 215.12 25.0133 215.12 24.424C215.12 24.0773 214.964 23.7827 214.652 23.54C214.34 23.2627 213.612 23.072 212.468 22.968C212.017 22.9333 211.428 22.864 210.7 22.76C210.006 22.656 209.313 22.4653 208.619 22.188C207.926 21.876 207.337 21.4253 206.852 20.836C206.401 20.2467 206.176 19.4493 206.176 18.444C206.176 16.884 206.765 15.6533 207.944 14.752C209.122 13.8507 210.7 13.4 212.676 13.4C213.82 13.4 214.894 13.5213 215.9 13.764C216.94 14.0067 217.72 14.3707 218.24 14.856C218.725 15.3067 218.968 15.8267 218.968 16.416C218.968 16.936 218.777 17.404 218.396 17.82C218.014 18.236 217.529 18.444 216.94 18.444C216.628 18.444 216.333 18.3747 216.056 18.236C215.64 17.9587 215.102 17.7507 214.444 17.612C213.82 17.4733 213.178 17.404 212.52 17.404C211.202 17.404 210.544 17.6813 210.544 18.236C210.544 18.4787 210.665 18.704 210.908 18.912C211.185 19.0853 211.792 19.2413 212.728 19.38C213.317 19.4493 213.993 19.5533 214.756 19.692C215.518 19.796 216.246 20.004 216.94 20.316C217.668 20.5933 218.274 21.0613 218.76 21.72C219.245 22.3787 219.488 23.28 219.488 24.424C219.488 25.984 218.864 27.232 217.616 28.168C216.368 29.0693 214.721 29.52 212.676 29.52Z" fill="white"/>
</svg>
