<svg width="232" height="37" viewBox="0 0 232 37" fill="none" xmlns="http://www.w3.org/2000/svg">
<path d="M3.848 29.52C3.15467 29.52 2.56533 29.26 2.08 28.74C1.62933 28.22 1.456 27.6133 1.56 26.92L3.744 10.228C3.848 9.46533 4.16 8.85867 4.68 8.408C5.2 7.92267 5.824 7.68 6.552 7.68C8.04267 7.68 9.01333 8.32133 9.464 9.604L13 19.796C13.1733 20.1427 13.3467 20.316 13.52 20.316C13.7627 20.316 13.936 20.1427 14.04 19.796L17.576 9.604C18.0267 8.32133 18.98 7.68 20.436 7.68C21.2333 7.68 21.8747 7.92267 22.36 8.408C22.88 8.85867 23.192 9.46533 23.296 10.228L25.48 26.92C25.584 27.6133 25.3933 28.22 24.908 28.74C24.4573 29.26 23.8853 29.52 23.192 29.52C22.568 29.52 22.0307 29.3293 21.58 28.948C21.164 28.532 20.9213 28.012 20.852 27.388L20.072 16.52C20.0373 16.104 19.8987 15.896 19.656 15.896C19.4133 15.896 19.24 16.0693 19.136 16.416L16.12 24.892C15.6347 26.1747 14.768 26.816 13.52 26.816C13.0347 26.816 12.5493 26.6427 12.064 26.296C11.6133 25.9493 11.2493 25.4987 10.972 24.944L7.956 16.52C7.852 16.208 7.67867 16.052 7.436 16.052C7.228 16.052 7.08933 16.26 7.02 16.676L6.188 27.388C6.15333 28.012 5.91067 28.532 5.46 28.948C5.00933 29.3293 4.472 29.52 3.848 29.52ZM35.8556 29.52C33.533 29.52 31.6436 28.792 30.1876 27.336C28.7663 25.8453 28.0556 23.8693 28.0556 21.408C28.0556 18.9467 28.749 17.0053 30.1356 15.584C31.557 14.128 33.4116 13.4 35.6996 13.4C37.329 13.4 38.7503 13.972 39.9636 15.116C40.1023 14.7 40.3623 14.3533 40.7436 14.076C41.125 13.7987 41.5756 13.66 42.0956 13.66C42.789 13.66 43.3436 13.868 43.7596 14.284C44.2103 14.6653 44.4356 15.1333 44.4356 15.688V27.492C44.4356 28.0813 44.2103 28.5667 43.7596 28.948C43.3436 29.3293 42.789 29.52 42.0956 29.52C40.9516 29.52 40.241 29.0173 39.9636 28.012C38.8543 29.0173 37.485 29.52 35.8556 29.52ZM36.2196 25.308C37.329 25.308 38.213 24.944 38.8716 24.216C39.5303 23.4533 39.8596 22.5173 39.8596 21.408C39.8596 20.264 39.5303 19.3453 38.8716 18.652C38.213 17.9587 37.329 17.612 36.2196 17.612C35.145 17.612 34.261 17.9587 33.5676 18.652C32.909 19.3453 32.5796 20.264 32.5796 21.408C32.5796 22.5173 32.909 23.4533 33.5676 24.216C34.261 24.944 35.145 25.308 36.2196 25.308ZM54.8417 29.52C53.3511 29.52 52.1204 29.0867 51.1497 28.22C50.1791 27.3533 49.6937 26.0187 49.6937 24.216V18.6C49.6937 18.2533 49.5204 18.08 49.1737 18.08H48.3937C47.7697 18.08 47.3017 17.8893 46.9897 17.508C46.6777 17.1267 46.5217 16.6413 46.5217 16.052C46.5217 15.428 46.6777 14.9253 46.9897 14.544C47.3017 14.128 47.7697 13.92 48.3937 13.92H49.1737C49.5204 13.92 49.6937 13.7467 49.6937 13.4V9.552C49.6937 8.96267 49.9017 8.46 50.3177 8.044C50.7337 7.628 51.2711 7.42 51.9297 7.42C52.5884 7.42 53.1257 7.628 53.5417 8.044C53.9924 8.42533 54.2177 8.928 54.2177 9.552V13.4C54.2177 13.7467 54.3911 13.92 54.7377 13.92H56.6617C57.2511 13.92 57.7364 14.128 58.1177 14.544C58.5337 14.96 58.7417 15.4627 58.7417 16.052C58.7417 16.6413 58.5337 17.1267 58.1177 17.508C57.7364 17.8893 57.2337 18.08 56.6097 18.08H54.7377C54.3911 18.08 54.2177 18.2533 54.2177 18.6V23.488C54.2177 24.112 54.3217 24.5453 54.5297 24.788C54.7724 25.0307 55.0671 25.152 55.4137 25.152C55.5524 25.152 55.8297 25.1173 56.2457 25.048C56.6617 24.944 56.9217 24.892 57.0257 24.892C57.5804 24.892 58.0484 25.1 58.4297 25.516C58.8111 25.932 59.0017 26.4347 59.0017 27.024C59.0017 27.4747 58.8631 27.8907 58.5857 28.272C58.3431 28.6533 57.9444 28.9307 57.3897 29.104C56.9391 29.2427 56.5057 29.3467 56.0897 29.416C55.6737 29.4853 55.2577 29.52 54.8417 29.52ZM68.0956 29.52C66.605 29.52 65.3743 29.0867 64.4036 28.22C63.433 27.3533 62.9476 26.0187 62.9476 24.216V18.6C62.9476 18.2533 62.7743 18.08 62.4276 18.08H61.6476C61.0236 18.08 60.5556 17.8893 60.2436 17.508C59.9316 17.1267 59.7756 16.6413 59.7756 16.052C59.7756 15.428 59.9316 14.9253 60.2436 14.544C60.5556 14.128 61.0236 13.92 61.6476 13.92H62.4276C62.7743 13.92 62.9476 13.7467 62.9476 13.4V9.552C62.9476 8.96267 63.1556 8.46 63.5716 8.044C63.9876 7.628 64.525 7.42 65.1836 7.42C65.8423 7.42 66.3796 7.628 66.7956 8.044C67.2463 8.42533 67.4716 8.928 67.4716 9.552V13.4C67.4716 13.7467 67.645 13.92 67.9916 13.92H69.9156C70.505 13.92 70.9903 14.128 71.3716 14.544C71.7876 14.96 71.9956 15.4627 71.9956 16.052C71.9956 16.6413 71.7876 17.1267 71.3716 17.508C70.9903 17.8893 70.4876 18.08 69.8636 18.08H67.9916C67.645 18.08 67.4716 18.2533 67.4716 18.6V23.488C67.4716 24.112 67.5756 24.5453 67.7836 24.788C68.0263 25.0307 68.321 25.152 68.6676 25.152C68.8063 25.152 69.0836 25.1173 69.4996 25.048C69.9156 24.944 70.1756 24.892 70.2796 24.892C70.8343 24.892 71.3023 25.1 71.6836 25.516C72.065 25.932 72.2556 26.4347 72.2556 27.024C72.2556 27.4747 72.117 27.8907 71.8396 28.272C71.597 28.6533 71.1983 28.9307 70.6436 29.104C70.193 29.2427 69.7596 29.3467 69.3436 29.416C68.9276 29.4853 68.5116 29.52 68.0956 29.52ZM90.7197 29.52C89.9917 29.52 89.333 29.2947 88.7437 28.844C88.1544 28.3587 87.7904 27.7347 87.6517 26.972L84.4797 10.072C84.4104 9.37867 84.601 8.80667 85.0517 8.356C85.537 7.90533 86.1264 7.68 86.8197 7.68C87.409 7.68 87.9117 7.85333 88.3277 8.2C88.7437 8.54667 89.0037 9.01467 89.1077 9.604L90.9797 20.992C91.049 21.408 91.205 21.616 91.4477 21.616C91.6557 21.616 91.8117 21.4253 91.9157 21.044L94.4117 11.84C94.585 11.1813 94.9144 10.696 95.3997 10.384C95.885 10.0373 96.405 9.864 96.9597 9.864C97.5144 9.864 98.0344 10.0373 98.5197 10.384C99.005 10.696 99.3344 11.1813 99.5077 11.84L102.004 21.044C102.108 21.4253 102.264 21.616 102.472 21.616C102.749 21.616 102.905 21.408 102.94 20.992L104.812 9.604C104.916 9.01467 105.176 8.54667 105.592 8.2C106.042 7.85333 106.545 7.68 107.1 7.68C107.793 7.68 108.365 7.90533 108.816 8.356C109.301 8.80667 109.509 9.37867 109.44 10.072L106.216 26.972C106.077 27.7347 105.713 28.3587 105.124 28.844C104.534 29.2947 103.876 29.52 103.148 29.52C102.489 29.52 101.865 29.312 101.276 28.896C100.721 28.4453 100.305 27.856 100.028 27.128L97.4277 17.976C97.3237 17.5947 97.1677 17.404 96.9597 17.404C96.717 17.404 96.5437 17.5947 96.4397 17.976L93.8397 27.128C93.6317 27.856 93.233 28.4453 92.6437 28.896C92.0544 29.312 91.413 29.52 90.7197 29.52ZM115.226 29.52C114.567 29.52 114.013 29.3293 113.562 28.948C113.111 28.5667 112.886 28.0813 112.886 27.492V15.688C112.886 15.1333 113.094 14.6653 113.51 14.284C113.961 13.868 114.533 13.66 115.226 13.66C115.919 13.66 116.457 13.868 116.838 14.284C117.254 14.6653 117.462 15.1507 117.462 15.74V27.44C117.462 28.0293 117.237 28.532 116.786 28.948C116.37 29.3293 115.85 29.52 115.226 29.52ZM115.226 11.06C114.498 11.06 113.874 10.8347 113.354 10.384C112.834 9.89867 112.574 9.292 112.574 8.564C112.574 7.90533 112.834 7.33333 113.354 6.848C113.874 6.36267 114.498 6.12 115.226 6.12C115.919 6.12 116.509 6.36267 116.994 6.848C117.514 7.33333 117.774 7.90533 117.774 8.564C117.774 9.292 117.514 9.89867 116.994 10.384C116.509 10.8347 115.919 11.06 115.226 11.06ZM124.062 29.52C123.403 29.52 122.849 29.3293 122.398 28.948C121.947 28.5667 121.722 28.0813 121.722 27.492V8.148C121.722 7.59333 121.93 7.12533 122.346 6.744C122.797 6.328 123.369 6.12 124.062 6.12C124.721 6.12 125.258 6.328 125.674 6.744C126.09 7.12533 126.298 7.61067 126.298 8.2V27.44C126.298 28.0293 126.073 28.532 125.622 28.948C125.206 29.3293 124.686 29.52 124.062 29.52ZM132.898 29.52C132.239 29.52 131.684 29.3293 131.234 28.948C130.783 28.5667 130.558 28.0813 130.558 27.492V8.148C130.558 7.59333 130.766 7.12533 131.182 6.744C131.632 6.328 132.204 6.12 132.898 6.12C133.556 6.12 134.094 6.328 134.51 6.744C134.926 7.12533 135.134 7.61067 135.134 8.2V27.44C135.134 28.0293 134.908 28.532 134.458 28.948C134.042 29.3293 133.522 29.52 132.898 29.52ZM141.734 29.52C141.075 29.52 140.52 29.3293 140.07 28.948C139.619 28.5667 139.394 28.0813 139.394 27.492V15.688C139.394 15.1333 139.602 14.6653 140.018 14.284C140.468 13.868 141.04 13.66 141.734 13.66C142.427 13.66 142.964 13.868 143.346 14.284C143.762 14.6653 143.97 15.1507 143.97 15.74V27.44C143.97 28.0293 143.744 28.532 143.294 28.948C142.878 29.3293 142.358 29.52 141.734 29.52ZM141.734 11.06C141.006 11.06 140.382 10.8347 139.862 10.384C139.342 9.89867 139.082 9.292 139.082 8.564C139.082 7.90533 139.342 7.33333 139.862 6.848C140.382 6.36267 141.006 6.12 141.734 6.12C142.427 6.12 143.016 6.36267 143.502 6.848C144.022 7.33333 144.282 7.90533 144.282 8.564C144.282 9.292 144.022 9.89867 143.502 10.384C143.016 10.8347 142.427 11.06 141.734 11.06ZM154.938 29.52C152.615 29.52 150.726 28.792 149.27 27.336C147.848 25.8453 147.138 23.8693 147.138 21.408C147.138 18.9467 147.831 17.0053 149.218 15.584C150.639 14.128 152.494 13.4 154.782 13.4C156.411 13.4 157.832 13.972 159.046 15.116C159.184 14.7 159.444 14.3533 159.826 14.076C160.207 13.7987 160.658 13.66 161.178 13.66C161.871 13.66 162.426 13.868 162.842 14.284C163.292 14.6653 163.518 15.1333 163.518 15.688V27.492C163.518 28.0813 163.292 28.5667 162.842 28.948C162.426 29.3293 161.871 29.52 161.178 29.52C160.034 29.52 159.323 29.0173 159.046 28.012C157.936 29.0173 156.567 29.52 154.938 29.52ZM155.302 25.308C156.411 25.308 157.295 24.944 157.954 24.216C158.612 23.4533 158.942 22.5173 158.942 21.408C158.942 20.264 158.612 19.3453 157.954 18.652C157.295 17.9587 156.411 17.612 155.302 17.612C154.227 17.612 153.343 17.9587 152.65 18.652C151.991 19.3453 151.662 20.264 151.662 21.408C151.662 22.5173 151.991 23.4533 152.65 24.216C153.343 24.944 154.227 25.308 155.302 25.308ZM169.764 29.52C169.105 29.52 168.55 29.3293 168.1 28.948C167.649 28.5667 167.424 28.0813 167.424 27.492V15.688C167.424 15.1333 167.632 14.6653 168.048 14.284C168.498 13.868 169.07 13.66 169.764 13.66C170.561 13.66 171.168 13.9373 171.584 14.492C171.757 14.7 171.861 14.908 171.896 15.116C172.312 14.596 172.866 14.18 173.56 13.868C174.253 13.556 175.033 13.4 175.9 13.4C178.257 13.4 179.956 14.18 180.996 15.74C181.62 14.9773 182.382 14.4053 183.284 14.024C184.185 13.608 185.121 13.4 186.092 13.4C188.033 13.4 189.558 13.972 190.668 15.116C191.812 16.26 192.384 18.08 192.384 20.576V27.596C192.384 28.1507 192.158 28.6187 191.708 29C191.292 29.3467 190.754 29.52 190.096 29.52C189.437 29.52 188.882 29.3293 188.432 28.948C188.016 28.5667 187.808 28.0813 187.808 27.492V21.148C187.808 19.8653 187.582 18.9467 187.132 18.392C186.681 17.8373 186.04 17.56 185.208 17.56C184.376 17.56 183.7 17.82 183.18 18.34C182.694 18.8253 182.365 19.4147 182.192 20.108V27.596C182.192 28.1507 181.966 28.6187 181.516 29C181.1 29.3467 180.562 29.52 179.904 29.52C179.245 29.52 178.69 29.3293 178.24 28.948C177.824 28.5667 177.616 28.0813 177.616 27.492V21.148C177.616 19.8653 177.39 18.9467 176.94 18.392C176.489 17.8373 175.848 17.56 175.016 17.56C174.218 17.56 173.56 17.82 173.04 18.34C172.52 18.8253 172.173 19.3973 172 20.056V27.44C172 28.0293 171.774 28.532 171.324 28.948C170.908 29.3293 170.388 29.52 169.764 29.52ZM201.676 29.52C199.318 29.52 197.377 29.0347 195.852 28.064C195.54 27.856 195.314 27.6133 195.176 27.336C195.037 27.024 194.968 26.7293 194.968 26.452C194.968 25.8627 195.158 25.3253 195.54 24.84C195.956 24.3547 196.458 24.112 197.048 24.112C197.325 24.112 197.602 24.1813 197.88 24.32C198.504 24.5973 199.214 24.84 200.012 25.048C200.809 25.2213 201.537 25.308 202.196 25.308C203.478 25.308 204.12 25.0133 204.12 24.424C204.12 24.0773 203.964 23.7827 203.652 23.54C203.34 23.2627 202.612 23.072 201.468 22.968C201.017 22.9333 200.428 22.864 199.7 22.76C199.006 22.656 198.313 22.4653 197.619 22.188C196.926 21.876 196.337 21.4253 195.852 20.836C195.401 20.2467 195.176 19.4493 195.176 18.444C195.176 16.884 195.765 15.6533 196.944 14.752C198.122 13.8507 199.7 13.4 201.676 13.4C202.82 13.4 203.894 13.5213 204.9 13.764C205.94 14.0067 206.72 14.3707 207.24 14.856C207.725 15.3067 207.968 15.8267 207.968 16.416C207.968 16.936 207.777 17.404 207.396 17.82C207.014 18.236 206.529 18.444 205.94 18.444C205.628 18.444 205.333 18.3747 205.056 18.236C204.64 17.9587 204.102 17.7507 203.444 17.612C202.82 17.4733 202.178 17.404 201.52 17.404C200.202 17.404 199.544 17.6813 199.544 18.236C199.544 18.4787 199.665 18.704 199.908 18.912C200.185 19.0853 200.792 19.2413 201.728 19.38C202.317 19.4493 202.993 19.5533 203.756 19.692C204.518 19.796 205.246 20.004 205.94 20.316C206.668 20.5933 207.274 21.0613 207.76 21.72C208.245 22.3787 208.488 23.28 208.488 24.424C208.488 25.984 207.864 27.232 206.616 28.168C205.368 29.0693 203.721 29.52 201.676 29.52Z" fill="white"/>
</svg>
