<?xml version="1.0" encoding="utf-8"?>
<!-- Generator: Adobe Illustrator 17.0.0, SVG Export Plug-In . SVG Version: 6.00 Build 0)  -->
<!DOCTYPE svg PUBLIC "-//W3C//DTD SVG 1.1//EN" "http://www.w3.org/Graphics/SVG/1.1/DTD/svg11.dtd">
<svg version="1.1" id="Layer_1" xmlns="http://www.w3.org/2000/svg" xmlns:xlink="http://www.w3.org/1999/xlink" x="0px" y="0px"
	 width="1120.81px" height="682.73px" viewBox="0 0 1120.81 682.73" enable-background="new 0 0 1120.81 682.73"
	 xml:space="preserve">
<g>
	<g>
		<path fill="none" stroke="#00ADEE" stroke-width="15.8613" stroke-linecap="round" stroke-miterlimit="10" d="M129.644,122.02
			c-6.219,26.74-69.362,78.783-69.362,78.783S26.574,126.237,32.793,99.497s32.943-43.38,59.683-37.161
			C119.216,68.555,135.864,95.273,129.644,122.02z"/>
		<path fill="none" stroke="#00ADEE" stroke-width="15.8613" stroke-linecap="round" stroke-miterlimit="10" d="M37.197,284.122
			c6.219-26.74,69.362-78.783,69.362-78.783s33.701,74.566,27.482,101.306c-6.219,26.74-32.943,43.38-59.683,37.16
			C47.618,337.586,30.978,310.862,37.197,284.122z"/>
	</g>
</g>
<g>
	<path fill="#00ADEE" stroke="#00ADEE" stroke-width="3" stroke-miterlimit="10" d="M175.709,169.417
		c-0.87,0.716-1.305,1.663-1.305,2.842c0,1.181,0.531,2.117,1.595,2.813c1.063,0.696,3.518,1.518,7.366,2.465
		c3.847,0.948,6.834,2.369,8.961,4.263c2.126,1.896,3.19,4.66,3.19,8.294c0,3.636-1.363,6.583-4.089,8.846
		c-2.726,2.262-6.313,3.393-10.759,3.393c-6.419,0-12.2-2.378-17.342-7.134l5.394-6.612c4.369,3.828,8.41,5.742,12.122,5.742
		c1.662,0,2.967-0.357,3.915-1.073c0.947-0.715,1.421-1.682,1.421-2.899c0-1.219-0.503-2.185-1.508-2.9
		c-1.006-0.715-2.997-1.44-5.974-2.175c-4.718-1.121-8.169-2.581-10.353-4.379c-2.185-1.798-3.277-4.62-3.277-8.468
		s1.382-6.815,4.147-8.903c2.764-2.088,6.215-3.132,10.353-3.132c2.706,0,5.413,0.464,8.12,1.392
		c2.706,0.928,5.065,2.243,7.076,3.944l-4.583,6.611c-3.519-2.667-7.154-4.001-10.904-4.001
		C177.767,168.344,176.578,168.702,175.709,169.417z"/>
	<path fill="#00ADEE" stroke="#00ADEE" stroke-width="3" stroke-miterlimit="10" d="M260.243,196.3
		c-4.099,4.002-9.145,6.003-15.138,6.003c-5.994,0-11.04-2.001-15.138-6.003c-4.1-4.002-6.148-8.98-6.148-14.936
		c0-5.954,2.049-10.933,6.148-14.935c4.098-4.002,9.144-6.003,15.138-6.003c5.993,0,11.039,2.001,15.138,6.003
		c4.099,4.002,6.148,8.98,6.148,14.935C266.391,187.32,264.341,192.298,260.243,196.3z M257.168,181.394
		c0-3.615-1.159-6.699-3.479-9.251c-2.32-2.552-5.172-3.828-8.555-3.828c-3.385,0-6.235,1.276-8.556,3.828
		c-2.319,2.552-3.479,5.636-3.479,9.251c0,3.616,1.16,6.689,3.479,9.222c2.32,2.533,5.171,3.799,8.556,3.799
		c3.383,0,6.234-1.266,8.555-3.799C256.009,188.083,257.168,185.01,257.168,181.394z"/>
	<path fill="#00ADEE" stroke="#00ADEE" stroke-width="3" stroke-miterlimit="10" d="M324.796,161.094v7.946h-18.792v8.758h17.864
		v7.946h-17.864v15.892h-9.048v-40.542H324.796z"/>
	<path fill="#00ADEE" stroke="#00ADEE" stroke-width="3" stroke-miterlimit="10" d="M372.531,168.924v32.712h-9.048v-32.712h-11.484
		v-7.83h32.016v7.83H372.531z"/>
	<path fill="#00ADEE" stroke="#00ADEE" stroke-width="3" stroke-miterlimit="10" d="M431.284,201.636h-17.748v-40.542h15.775
		c2.745,0,5.113,0.329,7.105,0.986c1.991,0.658,3.489,1.547,4.495,2.668c1.816,2.088,2.726,4.447,2.726,7.077
		c0,3.171-1.024,5.529-3.074,7.075c-0.695,0.542-1.18,0.88-1.449,1.016c-0.271,0.136-0.755,0.357-1.45,0.667
		c2.513,0.542,4.514,1.673,6.003,3.393c1.488,1.721,2.232,3.857,2.232,6.409c0,2.823-0.967,5.317-2.899,7.482
		C440.756,200.38,436.851,201.636,431.284,201.636z M422.583,177.508h4.292c2.513,0,4.379-0.271,5.597-0.812
		c1.218-0.541,1.827-1.711,1.827-3.509s-0.561-2.986-1.682-3.567c-1.122-0.58-3.017-0.87-5.685-0.87h-4.35V177.508z M422.583,193.98
		h6.206c2.59,0,4.533-0.318,5.829-0.957c1.295-0.638,1.942-1.894,1.942-3.77c0-1.875-0.687-3.112-2.059-3.712
		c-1.373-0.6-3.567-0.899-6.583-0.899h-5.336V193.98z"/>
	<path fill="#00ADEE" stroke="#00ADEE" stroke-width="3" stroke-miterlimit="10" d="M476.408,201.636v-40.542h9.048v32.48h17.284
		v8.062H476.408z"/>
	<path fill="#00ADEE" stroke="#00ADEE" stroke-width="3" stroke-miterlimit="10" d="M542.121,190.964
		c1.508,1.876,3.538,2.812,6.09,2.812c2.553,0,4.572-0.937,6.062-2.812c1.488-1.875,2.232-4.438,2.232-7.686v-22.388h9.049v22.678
		c0,5.878-1.624,10.393-4.872,13.543c-3.248,3.152-7.405,4.728-12.471,4.728s-9.231-1.585-12.499-4.756s-4.9-7.676-4.9-13.515
		v-22.678h9.048v22.388C539.859,186.527,540.613,189.089,542.121,190.964z"/>
	<path fill="#00ADEE" stroke="#00ADEE" stroke-width="3" stroke-miterlimit="10" d="M627.091,161.094v8.062h-20.184v8.352h18.154
		v7.714h-18.154v8.41h20.822v8.004h-29.87v-40.542H627.091z"/>
	<path fill="#00ADEE" stroke="#00ADEE" stroke-width="3" stroke-miterlimit="10" d="M668.183,169.417
		c-0.87,0.716-1.305,1.663-1.305,2.842c0,1.181,0.531,2.117,1.595,2.813s3.519,1.518,7.366,2.465
		c3.847,0.948,6.834,2.369,8.961,4.263c2.126,1.896,3.19,4.66,3.19,8.294c0,3.636-1.363,6.583-4.089,8.846
		c-2.727,2.262-6.313,3.393-10.76,3.393c-6.419,0-12.199-2.378-17.342-7.134l5.395-6.612c4.368,3.828,8.409,5.742,12.121,5.742
		c1.662,0,2.968-0.357,3.915-1.073c0.947-0.715,1.422-1.682,1.422-2.899c0-1.219-0.503-2.185-1.509-2.9
		c-1.006-0.715-2.997-1.44-5.974-2.175c-4.718-1.121-8.169-2.581-10.353-4.379c-2.186-1.798-3.277-4.62-3.277-8.468
		s1.382-6.815,4.146-8.903s6.216-3.132,10.354-3.132c2.706,0,5.413,0.464,8.12,1.392c2.706,0.928,5.064,2.243,7.076,3.944
		l-4.582,6.611c-3.52-2.667-7.154-4.001-10.904-4.001C670.243,168.344,669.054,168.702,668.183,169.417z"/>
	<path fill="#00ADEE" stroke="#00ADEE" stroke-width="3" stroke-miterlimit="10" d="M731.258,184.41l7.192-23.316h9.454
		l7.134,23.316l8.062-23.316h9.803l-14.152,40.542h-6.728l-8.874-28.188l-8.816,28.188h-6.729l-14.151-40.542h9.802L731.258,184.41z
		"/>
	<path fill="#00ADEE" stroke="#00ADEE" stroke-width="3" stroke-miterlimit="10" d="M800.626,161.094h9.048v40.542h-9.048V161.094z"
		/>
	<path fill="#00ADEE" stroke="#00ADEE" stroke-width="3" stroke-miterlimit="10" d="M859.726,168.924v32.712h-9.048v-32.712h-11.484
		v-7.83h32.016v7.83H859.726z"/>
	<path fill="#00ADEE" stroke="#00ADEE" stroke-width="3" stroke-miterlimit="10" d="M919.35,193.864
		c4.445,0,8.081-1.759,10.903-5.278l5.8,5.975c-4.602,5.182-10.024,7.771-16.269,7.771c-6.245,0-11.388-1.972-15.428-5.916
		c-4.041-3.944-6.062-8.922-6.062-14.935s2.06-11.029,6.177-15.051c4.118-4.021,9.154-6.032,15.109-6.032
		c6.65,0,12.218,2.533,16.704,7.598l-5.626,6.38c-2.862-3.557-6.419-5.336-10.672-5.336c-3.403,0-6.313,1.112-8.729,3.335
		c-2.417,2.224-3.625,5.22-3.625,8.99c0,3.77,1.141,6.796,3.422,9.077S916.102,193.864,919.35,193.864z"/>
	<path fill="#00ADEE" stroke="#00ADEE" stroke-width="3" stroke-miterlimit="10" d="M991.269,161.094h9.048v40.542h-9.048v-15.95
		h-16.124v15.95h-9.048v-40.542h9.048v16.936h16.124V161.094z"/>
</g>
<text transform="matrix(1 0 0 1 149.2352 -212.8185)" fill="#00ADEE" font-family="'Montserrat-Bold'" font-size="58" letter-spacing="22">SOFTBLUESWITCH</text>
</svg>
