<?xml version="1.0" encoding="utf-8"?>
<!-- Generator: Adobe Illustrator 17.0.0, SVG Export Plug-In . SVG Version: 6.00 Build 0)  -->
<!DOCTYPE svg PUBLIC "-//W3C//DTD SVG 1.1//EN" "http://www.w3.org/Graphics/SVG/1.1/DTD/svg11.dtd">
<svg version="1.1" id="Layer_1" xmlns="http://www.w3.org/2000/svg" xmlns:xlink="http://www.w3.org/1999/xlink" x="0px" y="0px"
	 width="905.994px" height="176.991px" viewBox="0 0 905.994 176.991" enable-background="new 0 0 905.994 176.991"
	 xml:space="preserve">
<g>
	<circle opacity="0.8" fill="#00AEEF" enable-background="new    " cx="39.284" cy="87.906" r="39.284"/>
	<g>
		<g>
			<path fill="#FFFFFF" d="M47.642,106.581c-0.846-6.378-14.43-20.206-14.43-20.206s-9.515,16.893-8.669,23.272
				c0.846,6.378,6.703,10.863,13.082,10.017S48.489,112.96,47.642,106.581z"/>
		</g>
	</g>
	<path fill="#FFFFFF" d="M31.742,70.72c0.846,6.378,14.43,20.206,14.43,20.206s9.515-16.893,8.669-23.272
		s-6.703-10.863-13.082-10.017C35.381,58.485,30.896,64.342,31.742,70.72z"/>
</g>
<text transform="matrix(1 0 0 1 111.5888 88.7409)" opacity="0.8" fill="#00AEEF" enable-background="new    " font-family="'Lato-Bold'" font-size="42">soft blue switch</text>
<text transform="matrix(1 0 0 1 111.5888 117.7409)" opacity="0.8" fill="#00AEEF" enable-background="new    " font-family="'Lato-Bold'" font-size="20">New Zealand</text>
<line fill="none" stroke="#00AEEF" stroke-width="7" stroke-miterlimit="10" x1="1" y1="158.991" x2="905.994" y2="158.991"/>
<line fill="none" stroke="#00AEEF" stroke-width="7" stroke-miterlimit="10" x1="1" y1="20" x2="905.994" y2="20"/>
</svg>
