<?xml version="1.0" encoding="utf-8"?>
<!-- Generator: Adobe Illustrator 17.0.0, SVG Export Plug-In . SVG Version: 6.00 Build 0)  -->
<!DOCTYPE svg PUBLIC "-//W3C//DTD SVG 1.1//EN" "http://www.w3.org/Graphics/SVG/1.1/DTD/svg11.dtd">
<svg version="1.1" id="Layer_1" xmlns="http://www.w3.org/2000/svg" xmlns:xlink="http://www.w3.org/1999/xlink" x="0px" y="0px"
	 width="267.497px" height="89px" viewBox="0 43.995 267.497 89" style="enable-background:new 0 43.995 267.497 89;"
	 xml:space="preserve">
<metadata><?xpacket begin="﻿" id="W5M0MpCehiHzreSzNTczkc9d"?>
<x:xmpmeta xmlns:x="adobe:ns:meta/" x:xmptk="Adobe XMP Core 5.5-c014 79.151739, 2013/04/03-12:12:15        ">
   <rdf:RDF xmlns:rdf="http://www.w3.org/1999/02/22-rdf-syntax-ns#">
      <rdf:Description rdf:about=""
            xmlns:xmp="http://ns.adobe.com/xap/1.0/"
            xmlns:xmpGImg="http://ns.adobe.com/xap/1.0/g/img/"
            xmlns:xmpTPg="http://ns.adobe.com/xap/1.0/t/pg/"
            xmlns:stDim="http://ns.adobe.com/xap/1.0/sType/Dimensions#"
            xmlns:xmpG="http://ns.adobe.com/xap/1.0/g/"
            xmlns:dc="http://purl.org/dc/elements/1.1/"
            xmlns:xmpMM="http://ns.adobe.com/xap/1.0/mm/"
            xmlns:stEvt="http://ns.adobe.com/xap/1.0/sType/ResourceEvent#">
         <xmp:CreatorTool>Adobe Illustrator CC (Macintosh)</xmp:CreatorTool>
         <xmp:CreateDate>2019-03-06T09:05:14+13:00</xmp:CreateDate>
         <xmp:MetadataDate>2019-03-06T09:05:15+13:00</xmp:MetadataDate>
         <xmp:ModifyDate>2019-03-06T09:05:15+13:00</xmp:ModifyDate>
         <xmp:Thumbnails>
            <rdf:Alt>
               <rdf:li rdf:parseType="Resource">
                  <xmpGImg:width>256</xmpGImg:width>
                  <xmpGImg:height>84</xmpGImg:height>
                  <xmpGImg:format>JPEG</xmpGImg:format>
                  <xmpGImg:image>/9j/4AAQSkZJRgABAgEASABIAAD/7QAsUGhvdG9zaG9wIDMuMAA4QklNA+0AAAAAABAASAAAAAEA&#xA;AQBIAAAAAQAB/+4ADkFkb2JlAGTAAAAAAf/bAIQABgQEBAUEBgUFBgkGBQYJCwgGBggLDAoKCwoK&#xA;DBAMDAwMDAwQDA4PEA8ODBMTFBQTExwbGxscHx8fHx8fHx8fHwEHBwcNDA0YEBAYGhURFRofHx8f&#xA;Hx8fHx8fHx8fHx8fHx8fHx8fHx8fHx8fHx8fHx8fHx8fHx8fHx8fHx8fHx8f/8AAEQgAVAEAAwER&#xA;AAIRAQMRAf/EAaIAAAAHAQEBAQEAAAAAAAAAAAQFAwIGAQAHCAkKCwEAAgIDAQEBAQEAAAAAAAAA&#xA;AQACAwQFBgcICQoLEAACAQMDAgQCBgcDBAIGAnMBAgMRBAAFIRIxQVEGE2EicYEUMpGhBxWxQiPB&#xA;UtHhMxZi8CRygvElQzRTkqKyY3PCNUQnk6OzNhdUZHTD0uIIJoMJChgZhJRFRqS0VtNVKBry4/PE&#xA;1OT0ZXWFlaW1xdXl9WZ2hpamtsbW5vY3R1dnd4eXp7fH1+f3OEhYaHiImKi4yNjo+Ck5SVlpeYmZ&#xA;qbnJ2en5KjpKWmp6ipqqusra6voRAAICAQIDBQUEBQYECAMDbQEAAhEDBCESMUEFURNhIgZxgZEy&#xA;obHwFMHR4SNCFVJicvEzJDRDghaSUyWiY7LCB3PSNeJEgxdUkwgJChgZJjZFGidkdFU38qOzwygp&#xA;0+PzhJSktMTU5PRldYWVpbXF1eX1RlZmdoaWprbG1ub2R1dnd4eXp7fH1+f3OEhYaHiImKi4yNjo&#xA;+DlJWWl5iZmpucnZ6fkqOkpaanqKmqq6ytrq+v/aAAwDAQACEQMRAD8A9U4q7FWO655203TmaCAf&#xA;W7pdiqGiKf8AKb+AzNwaGU9zsHA1HaEMew9UmGah5y1+8JH1g28Z6RwfB/w32vxzaY9Fjj0v3uoy&#xA;6/LPrXuSeWaaVuUrtI3ixJP45kiIHJxDInmtR3RuSMVbxBocSLQDSaWPmnXrMj07t3Qf7rlPqL/w&#xA;1afRlGTS45cw5OPWZYcj82X6L+YFlclYdRQWsp29UbxE+9d1/wA981ufs+Ud47j7Xa6ftOMtp7H7&#xA;GVqysoZSCpFQRuCDmudoC3irsVdirsVdirsVdirsVdirsVdirsVdirsVdirsVdirsVdirsVdirsV&#xA;dirsVYJ5w84Ozvp2nOVRSVuLhTux7qp8PE5t9Ho/4pfAOk12uv0Q+JYVm0dQ7FWUeU/KA1Nfrt6S&#xA;tkCRGi7NIR137KMwNXrPD9MfqdjotD4nql9P3s1TyzoCRemLCEr0qyhm/wCCNW/HNUdVkJviLuBo&#xA;8QFcIY35n8j28dtJe6WChiBaS2qWBUdShO9R4ZnaXXEnhn83X6zs4AcUOnRg2bZ0zJPKnm2XTJFt&#xA;btjJp7Gg7mInuvt4jMHV6QZBY+r73YaLWnGeGX0/c9LR0dFdGDIwDKwNQQdwQc0ZFPQg3uG8CXYq&#xA;7FXYq7FXYq7FXYq7FXYq7FXYq7FXYq7FXYq7FXYq7FXYq7FXYqx3ztrjadpoggbjdXdUUjqqD7Tf&#xA;wGZuhwccrPIOB2hqPDhQ+qTzHN8847FXYq9k0WKOLSLJI6cBBHQjvVQa/T1zmc5Jmb73rNMAMca7&#xA;gjMqbnYq8X1KOKPUbqOL+6SaRY/9UMQPwzqMZJiCedPIZQBIgcrQ+TYM8/L7XGkR9KnarRgvbE/y&#xA;/tJ9HUZqO0cFesfF3fZmoscB+DNM1bt3Yq7FXYq7FXYq7FXYq7FXYq7FXYq7FXYq7FXYq7FXYq7F&#xA;XYq7FXYq8q85agbzX7ihrHbn0Ix/qfa/4audDosfDjHnu8zr8vHlPlskmZThuxV2KvR/IeuLdWH6&#xA;Plb/AEm0HwV/airt/wAD0+7NJr8HDLiHI/e7/s3UcUeA84/cynNe7NB6xqC6fplxeN1iQlAe7nZR&#xA;9LEZbhx8cxFp1GXw4GXc8bJJJJNSdyc6Z5N2KorS757HUbe7TrC4Y+69GH0jbK8sOOJj3tmHJwTE&#xA;u57KrBlDKaqRUH2Ocw9cC3irsVS+/wBf0fT5RDd3SxSkV4UZjQ+IUGn05dj085i4hoy6nHA1I0VW&#xA;fV9Mgs1vJbmNbZ/sS1qGr/LTrkY4ZmXCBuylngI8ROyla+YNGu4ZZre6R0gQyTdQyooqWKkBqfRk&#xA;p6ecSARzYw1OOQJB5Ma07zKLzWZ57rVPq1nDIRb2qqeMka13ZqbbCu+Z2TTcMABG5HmXXYtXx5CZ&#xA;TqIOw7wmeg+bLfUL25tppUVjMy2KKrAvGKkEncVoMo1GkMIggdN3I02tE5EE9dvct85391ZrpzQT&#xA;tArzgSlW4grt19sOixiXFYvZdfklDho1umllr+j31wbe1uklmWp4CorTrxqBy+jMeennAWRs5OPU&#xA;45momyk+gatKuoeYHvrhja2k9E5ksI15yDYb+AzJ1GEcOPhG5H6nE02c8eTiO0T+kp5LrGmxWCX8&#xA;k4W0enCWjUNem1K5ijDIy4a3cw54CPET6XXusaZZQJNdXCxRyCsdaksOuygFvwxhhnI0AuTPCAuR&#xA;pfYalY38PrWcyzRg0JXqD4EHcZHJjlA1IUyx5YzFxNqWoa7pOnOqXlysTuKqlCzUrStFB2yePBOf&#xA;0i2GXU48ZqRp0WuaTLNBDHcq8lyvKACpDAVrQ0pX4TtgOCYBJHJI1GMkAHnyVV1Owa/ewWZTeIvN&#xA;4d6gbH5d8BxS4eKvSyGaJlwX6kq17VYZtPu47LUVtZ7V0W4lo9EJanElVPUjtmRp8REgZRsFxdTm&#xA;BgRGXCY81DVfM40z9GWxnjlmkMX16Uqf7ogcnAFKcuoyWLS8fEaob172GbWeHwC7O1+7vTdtc0lb&#xA;FL9rlFtJCRHIajkQSCACKnceGY/gT4uGt3LOox8PFfpSzWPMFnc+Xr240u7DSxKp5ISrrVwK0NGG&#xA;X4dPKOQCY5uNn1MZYpGB3CppHmbSXtbG2mvVa+eGIOCSayFBUFqceVffrkc2lmDIgemyywavGYxi&#xA;Zeqg8vmlaWZ5W+1IxY/Mmub+IoU83I2bWYUOxV2KomzubzT7mC8h5RyD44mIIDCpU/MGhByucYzB&#xA;iWyE5QIkOb1fQtattXsVuIfhcbTQ1qUbw+Xgc57PgOOVF6bTaiOWNjn1Yr+YurVeHS4zstJrinid&#xA;kX7t/uzYdnYecy6ztTPZEB7ywnNq6h2KuxV7DoMrS6JYSMasYI6nxIUA5zWoFZJDzer00rxxPkEf&#xA;lLe7FWGa5azWmr3urWFzazOIx9cs7gqWACjYA+IHiM2eCYlAQkJDuIdRqIGOSU4mJ7wULd3lrd33&#xA;l+6vIEt9LeNh6JAEKurFTtSnHZfoy2EDGOQRNz+1qnkjKWOUhUK+H45ItvqL+ebL9F+mU9FvrZgp&#xA;w6PXlx28Pwyr1DTnj79rbjwnUx4K5b18VTyZb2732tB4kYLcELVQaDk4oMGtkRGG/T9SdBEGU9uv&#xA;61vkg2aXOoRSGNbn6ywhRuIfateIO/btjruIiJHKkdn8IMgaviVPzA9P0tN9Snp/WPjr040Fa4Oz&#xA;7uVdzLtOqjfeoasbB/NOirpfpGVW/fehSnp1B34bfZ5ZPDxDDPjv4sM/Cc8OCr8u5CQKTF5xAFT6&#xA;hP0CSUnLJc8X46Bqjyze/wDSWtSv7JvIlnbrOjT1QGIMC4Kk1qvXHFjl+YJrZcuSJ00Re7tSWYeZ&#xA;LFpJ4rdfqkZtpbleUQPHcb7VrXHFXhSoE+reua5b8aNkD0ir5J15ZsRDq1/P9et7iSVV9aG2FFVq&#xA;7NQGnjmLqslwiOEj3uXpMdTkeIG+5C+YLKWHWZdUsbu2a5iiH1iyuCpPEL2B8QPb55Zp5gwEJA1e&#xA;xDXqsZGQziY2BuChNQuhcaHpOvQ2y2xsZ6PFEOKcS+/H2LL+OWY41kljJviDVlnxY4ZQK4ShEmnt&#xA;pYPNjBilxdyq6f8AFLDiv3UYfdlhAkDh7oj5tQkYkZ++R+Sq9o8fkO5u5f7++mWd2PUgyAD+v04B&#xA;O9QAOURTIwrSmR5yN/ajPMqwrdeWZZAoj5r6zsBTiDF9ontSvXKtMTWQD8c27VgcWIn8cl2vNY/4&#xA;j0Z5TGdI4sUYUMPPka9Ph68a4NOJeFOvr+1dSY+NAmvD+z8ckZ5jl0ZtE1NLIwG4EcZnEPHlTmOP&#xA;LjlemE/EjxXXm3ao4/Dnw1e10lXmGys4vJemTRwoktIGMiqAxLxEtUjxO+ZGnnI55Anbf73F1WOI&#xA;08SBvt9zC3Rkdkb7Skg/MZswbdQRTWFXYqitLsJdQ1CCzj+1M4UnwXqzfQN8ry5BCJkejZixmchE&#xA;dXp2reWLC/0qOxVRE1uoW1lpUpQU38Qab5ocOqlCfF383o8+jjOAiNq5PPLO81Ty7qrDiUmjPCeF&#xA;vsuvWn8Qc3U4QzQ8nQ48k8E/Mc0BeXc13dS3Ux5SzMXc+57D2GXQgIgAdGiczKRJ5lRyTF2KuxV6&#xA;/wCXYzHoNgpFD6CEj/WWv8c5rUm8kve9VpRWKPuTHKXIdiqXXfl7Rbu4+sXFpHJMftPuCf8AWoRX&#xA;6cuhqMkRQOzjz0uORsjdE3Gm2FzbLaz26PbrQJGVFFp04+H0ZCOWUTYO7ZPFGQ4SNllhpGmaeG+p&#xA;26QltmZR8RHuTU4cmac/qNoxYIQ+kUvtdPsrV5Xt4liaducpX9pt9z9+CeSUqs8kwxRjdCrUhomk&#xA;i++vC1jF2Ty9Wm/I/tU6V98l48+HhvZj+Xx8XFXqVbzTrG9CC7hSYRnkgcVAPyyMMko8jTLJijP6&#xA;halY6JpNhI0lpbJFI2xcVJp4AmtBksmecxUjbHHp4QNxFKkGm2MD3DxQKrXR5XBp9smp+Kv+scjL&#xA;JI1Z5cmUcUYkkD6uaEXyv5fXnSxi/efaqCe9dqnb6MtOqyfzi1DR4v5oRV5pWnXkKQ3VukscYpGG&#xA;H2dqbHqMrhllE2C2TwwmKkLdYaXp9ghSzgSEN9oqNz8ydzjkyyn9RtceGEPpFKN7oGjX03r3Vokk&#xA;vd9wTTxoRX6clDUTgKB2Y5NNjmbkN0TJYWUlp9TeFDa0C+jSi0BqBQZAZJCXFe7YccTHhr0rH0vT&#xA;3shYvAhtFpxhp8IoajCMshLivdBwwMeGvSul06xmsxZSQq1qoVVhP2QE+yPopgGSQlxA7rLFEx4S&#xA;PStu9L0+8t1t7mBZYUpwVv2aCgoRuMMMsomwd1nhhMVIWFr6NpT2S2LWsZtU3SKmwNa1HcHfCM0x&#xA;LivdidPAx4a9KyHQdHhtpLaK0jWGanqrSvKhqKk7mmGWomTZO4RHTYwDEDYqs+l6fPaJaTQK9tFx&#xA;EcR6DiKLT5DIxyyB4gd2csMJR4SNg8u802Js9eu46UR3Msf+rJ8X4Vpm/wBLk4sYLzWsx8GUj4pV&#xA;mQ4zsVZx+XGmClxqTjf+4h/BnP6hmp7Sy8ofF3HZWHnM+5nGap3TGvOvl4ajZG7gT/TbZSdurxjc&#xA;r8x1GZ2i1HBLhP0l13aGl448Q+ofc80zevPOxV2Kq1nayXV3DbR7vM6ov+yNMjOQiCT0ZY4GUgB1&#xA;e0RRpHGkaCiIAqj2AoM5cmzb14FCl2BLsVSC/wDM13b3l/bwaebhdPVZJpfVVBwZA5NCpO3tmZj0&#xA;oMYkyri8nBy6uUZSAjfD5qd35zt43hS3hWVpIFuX9WZIAquKhQWryf2GGGiJuz1rlbGevAoAXte5&#xA;r8FennC2YSu0BSJbT65CxbdxXiUpTYh9upwHRnbffipI1w3NbcPF+PiqWPmdbx9Ojit/3l8JTKpf&#xA;+5ERoa/DvU9OmDJpeHiJP018bZ49Zx8IA+q/hTta1/UNNuFjXThPFK6x27icK8jMBsI+LHY7Y4dP&#xA;GY+qu/ZGo1M8ZrhsHlvz+CHvvOkNtdTwrbq6WpC3DNMiPy/aEcbfE/HJw0RkAb5+X3nowydoCMiK&#xA;+nnv9w6ojVfMlxYfvvqJlsQEY3JlRGIen2IzVmpXIYtMJ7cXq7q/Szzasw34bj33+hStryYa7q8s&#xA;KNchYLd4YAwFeS125GgyUoDw4A7bljDIfFmRvtHZafN7xw331iyEdzZIkvorMsisrMF+2q7EFvDD&#xA;+Tsxo7S8kfniBK47x8/0qsXml1mZL+ya0Q27XUL8xJyRdyCABxNO1cidLt6Te9Mo6yj6o8O196Xt&#xA;q1/fa3oUstq1nbzes8X70P6iMgILKAKU2O/jlwwxhjmAbIrpyaDmlPJjJHCDfXmy7Na7V2KuxV2K&#xA;uxV2KuxV2KsT/MDRTc2SajCtZbUUlp1MR3r/ALE/xzY9n5+GXCeR+91faen4o8Y5j7nnebp0LsVe&#xA;teU4Eg8u2Sr+1H6hPu5LH9ec7q5XlL0+hjWKKbZjOW7FXj2vwRW+tXsMQpGkzcVHQAmtPozpdPIn&#xA;GCe55PUREckgOVoDLml2Ksy/L3RWkuG1WVf3cNUt693Iozf7EbZrO0c9DgHXm7bszT2eM9OTPs07&#xA;vHYq7FUnk0F3utYm9YAapCsKrx+xSP06nffxzJGooQFfSb+1xDprlM39Yr7KQf8AhKeFrea0ukS4&#xA;jgW3m9WESI4QbMAT8J2y382DYI2u+bV+SIoxO9VytW1DysL79H+rOCbTa4IQIJk5BivFaBd1yOPV&#xA;cHFQ58vJll0fHw2fp5+atpvl2Oy1i81ESc/rFfSjpThzbk/fu2Qy6kygI9zPFpRDJKd81K90PVZt&#xA;Z/SUN7GhReFvHJEXEYI+KnxDc+OShngIcJB892OTTzOTjEh5bclk3lm6F7cXFndxwi7IeZZIEmIf&#xA;uyFjtXwwx1Q4QJC686Yy0cuImJri8rUNS8nTXlxdSfWo+NyEo0kIeSPgKUjbl8IJ8Bk8WsEQBXLz&#xA;YZdAZkmxv5cvciLnyvJMl+ouvTN5DBCGVTVfQABrvuGpkI6oDh2+kn7WyejJ4t/qAHyQo8lyendj&#xA;6xEjXUCw8YofTRSrq3KgbeoXfLPzo22Oxvm1/kDR3HqFbBMLvy6t1NC0ktI47R7R1A3PMU5A17ZT&#xA;DU8IND+K2+el4iLP8NIez8tX8d1p0tzfiaPTQyQRCIL8BXj9qvXYZOeqiRICNcXm1w0khKJMr4OW&#xA;zIcwnPdirsVdirsVdirsVdirTKrKVYAqRQg7gg4qQ8082+VJNMla7tVLafIeg3MRP7J9vA5vdJqx&#xA;kFH6vved1uiOM8Ufp+5jeZzr3oHkPzBBJaJpU7hLiKv1ev7aE1oD4ivTwzTa/TkS4xyd52bqgY+G&#xA;eY5MwzWu2QOs6xaaVZtcXDDlQ+lFX4nbsB/XLsOGWSVBo1GojijZeQ3NxJc3EtxKayTOzufdjU50&#xA;cYiIAHR5aUjIknmVPJMU38u+XbrWbritY7WM/v5/D/JXxY5janUjEPNytLpZZZf0epeqWtrBaW8d&#xA;tboEhiUKijsBnPzmZGzzemhARAA5BVyLJ2KuxV2KuxV2KuxV2KuxV2KuxV2KuxV2KuxV2KuxV2Ku&#xA;xV2KuxV2KuxVp0R0ZHUMjAhlYVBB6gg4QaQRexYZrn5fJIzT6U4jY7m2c/D/ALBu3yObPB2jW0/m&#xA;6nUdmA7w+TDb3TNRsJON3bvAwOzMNj8mGx+g5s4ZYz5G3UZMM4H1CkTF5n8wRR+ml9Lx6fEeR+gt&#xA;U5WdLjJvhDZHV5QKEigbm6ubqUy3MrzSH9t2LH8cujARFAU0ymZGybLdrZ3d1J6dtC8z/wAqKW/V&#xA;jKYiLJpYY5SNAWyzRfy9uJGWXVW9GPr9XQguf9Zhsv0Zrs/aIG0N/N2mn7MJ3nt5M5tbW3tIEt7a&#xA;NYoUFFRRQDNTOZkbPN3UICIoCgq5Fk7FXYq7FXYq7FXYq7FXYq7FXYq7FXYq7FXYq7FXYq7FXYq7&#xA;FXYq7FXYq7FXYq7FWpOHA+pThT4uXSnvXCPJBrqkd1/gnmfX+oc9+VPT5fTx3zKh4/Ti+1w5/luv&#xA;B9ilb/4Eqvp/Ua/s8+Ff+HyUvzHXiYx/LdOBPrf6t6Q+r8PS/Z9OnH6KbZiSu9+bmxqtuSpkWTsV&#xA;dirsVdirsVdirsVdirsVdirsVdirsVdirsVdirsVdirsVdirsVdirsVdir//2Q==</xmpGImg:image>
               </rdf:li>
            </rdf:Alt>
         </xmp:Thumbnails>
         <xmpTPg:MaxPageSize rdf:parseType="Resource">
            <stDim:w>267.497009</stDim:w>
            <stDim:h>89.000000</stDim:h>
            <stDim:unit>Pixels</stDim:unit>
         </xmpTPg:MaxPageSize>
         <xmpTPg:NPages>1</xmpTPg:NPages>
         <xmpTPg:HasVisibleTransparency>True</xmpTPg:HasVisibleTransparency>
         <xmpTPg:HasVisibleOverprint>False</xmpTPg:HasVisibleOverprint>
         <xmpTPg:PlateNames>
            <rdf:Seq>
               <rdf:li>Cyan</rdf:li>
               <rdf:li>Magenta</rdf:li>
            </rdf:Seq>
         </xmpTPg:PlateNames>
         <xmpTPg:SwatchGroups>
            <rdf:Seq>
               <rdf:li rdf:parseType="Resource">
                  <xmpG:groupName>Default Swatch Group</xmpG:groupName>
                  <xmpG:groupType>0</xmpG:groupType>
               </rdf:li>
            </rdf:Seq>
         </xmpTPg:SwatchGroups>
         <dc:format>image/svg+xml</dc:format>
         <xmpMM:DerivedFrom rdf:parseType="Resource"/>
         <xmpMM:DocumentID>xmp.did:45628c80-cc78-42e5-99eb-c31cfa0149ab</xmpMM:DocumentID>
         <xmpMM:InstanceID>xmp.iid:45628c80-cc78-42e5-99eb-c31cfa0149ab</xmpMM:InstanceID>
         <xmpMM:OriginalDocumentID>xmp.did:45628c80-cc78-42e5-99eb-c31cfa0149ab</xmpMM:OriginalDocumentID>
         <xmpMM:History>
            <rdf:Seq>
               <rdf:li rdf:parseType="Resource">
                  <stEvt:action>saved</stEvt:action>
                  <stEvt:instanceID>xmp.iid:45628c80-cc78-42e5-99eb-c31cfa0149ab</stEvt:instanceID>
                  <stEvt:when>2019-03-06T09:05:15+13:00</stEvt:when>
                  <stEvt:softwareAgent>Adobe Illustrator CC (Macintosh)</stEvt:softwareAgent>
                  <stEvt:changed>/</stEvt:changed>
               </rdf:li>
            </rdf:Seq>
         </xmpMM:History>
      </rdf:Description>
   </rdf:RDF>
</x:xmpmeta>
                                                                                                    
                                                                                                    
                                                                                                    
                                                                                                    
                                                                                                    
                                                                                                    
                                                                                                    
                                                                                                    
                                                                                                    
                                                                                                    
                                                                                                    
                                                                                                    
                                                                                                    
                                                                                                    
                                                                                                    
                                                                                                    
                                                                                                    
                                                                                                    
                                                                                                    
                                                                                                    
                           
<?xpacket end="w"?>
	</metadata>
<g>
	<circle style="opacity:0.8;fill:#00AEEF;enable-background:new    ;" cx="39.284" cy="87.906" r="39.284"/>
	<g>
		<g>
			<path style="fill:#FFFFFF;" d="M47.642,106.581c-0.846-6.378-14.43-20.206-14.43-20.206s-9.515,16.893-8.669,23.272
				c0.846,6.378,6.703,10.863,13.082,10.017S48.489,112.96,47.642,106.581z"/>
		</g>
	</g>
	<path style="fill:#FFFFFF;" d="M31.742,70.72c0.846,6.378,14.43,20.206,14.43,20.206s9.515-16.893,8.669-23.272
		s-6.703-10.863-13.082-10.017C35.381,58.485,30.896,64.342,31.742,70.72z"/>
</g>
<g style="opacity:0.8;enable-background:new    ;">
	<path style="fill:#00AEEF;" d="M109.369,80.068c-0.07,0.112-0.144,0.19-0.22,0.236c-0.077,0.045-0.175,0.068-0.294,0.068
		c-0.126,0-0.261-0.035-0.404-0.105c-0.144-0.069-0.31-0.148-0.499-0.236c-0.189-0.087-0.404-0.166-0.646-0.236
		c-0.242-0.069-0.527-0.104-0.856-0.104c-0.511,0-0.913,0.108-1.208,0.325c-0.294,0.217-0.441,0.501-0.441,0.851
		c0,0.231,0.075,0.425,0.226,0.583c0.15,0.157,0.35,0.296,0.598,0.414c0.249,0.119,0.53,0.227,0.845,0.32
		c0.315,0.095,0.637,0.198,0.966,0.311c0.329,0.111,0.651,0.239,0.966,0.383s0.597,0.325,0.845,0.546s0.448,0.485,0.599,0.793
		c0.15,0.308,0.226,0.679,0.226,1.113c0,0.518-0.094,0.995-0.283,1.433s-0.466,0.815-0.83,1.134
		c-0.364,0.319-0.814,0.567-1.349,0.746c-0.536,0.179-1.15,0.268-1.843,0.268c-0.371,0-0.733-0.033-1.087-0.1
		s-0.693-0.159-1.019-0.278s-0.626-0.259-0.903-0.42c-0.277-0.161-0.52-0.336-0.73-0.525l0.599-0.986
		c0.077-0.119,0.168-0.21,0.273-0.273c0.105-0.062,0.238-0.095,0.399-0.095s0.313,0.046,0.457,0.137
		c0.143,0.091,0.31,0.189,0.499,0.294c0.189,0.105,0.411,0.203,0.667,0.294c0.255,0.091,0.579,0.137,0.971,0.137
		c0.308,0,0.572-0.037,0.792-0.11c0.221-0.073,0.402-0.17,0.546-0.289c0.144-0.118,0.249-0.257,0.315-0.414
		c0.066-0.158,0.1-0.32,0.1-0.488c0-0.252-0.075-0.459-0.226-0.62c-0.15-0.16-0.35-0.301-0.598-0.42
		c-0.249-0.119-0.532-0.226-0.851-0.32c-0.319-0.094-0.644-0.197-0.977-0.31c-0.333-0.111-0.658-0.243-0.977-0.394
		s-0.602-0.342-0.851-0.572c-0.249-0.231-0.448-0.515-0.598-0.851c-0.151-0.336-0.226-0.742-0.226-1.218
		c0-0.441,0.087-0.861,0.263-1.26c0.175-0.399,0.432-0.748,0.771-1.045c0.34-0.298,0.763-0.536,1.271-0.714
		c0.508-0.179,1.094-0.269,1.759-0.269c0.742,0,1.417,0.123,2.027,0.368c0.609,0.245,1.116,0.566,1.522,0.966L109.369,80.068z"/>
	<path style="fill:#00AEEF;" d="M116.75,77.8c0.805,0,1.535,0.13,2.189,0.389c0.654,0.26,1.213,0.627,1.675,1.103
		c0.462,0.477,0.819,1.058,1.071,1.743c0.252,0.687,0.378,1.453,0.378,2.3c0,0.854-0.126,1.624-0.378,2.31
		c-0.252,0.687-0.609,1.271-1.071,1.754c-0.462,0.482-1.021,0.854-1.675,1.112c-0.655,0.26-1.384,0.389-2.189,0.389
		c-0.805,0-1.537-0.129-2.194-0.389c-0.658-0.259-1.22-0.63-1.685-1.112c-0.466-0.483-0.826-1.067-1.082-1.754
		c-0.256-0.686-0.383-1.456-0.383-2.31c0-0.847,0.127-1.613,0.383-2.3c0.255-0.686,0.616-1.267,1.082-1.743
		c0.465-0.476,1.027-0.843,1.685-1.103C115.214,77.93,115.946,77.8,116.75,77.8z M116.75,86.903c0.896,0,1.56-0.301,1.99-0.902
		c0.431-0.603,0.646-1.484,0.646-2.646s-0.215-2.047-0.646-2.656c-0.43-0.609-1.094-0.913-1.99-0.913
		c-0.91,0-1.582,0.306-2.016,0.918c-0.435,0.613-0.651,1.497-0.651,2.651c0,1.155,0.217,2.035,0.651,2.641
		C115.168,86.6,115.84,86.903,116.75,86.903z"/>
	<path style="fill:#00AEEF;" d="M124.552,88.741v-8.82l-0.935-0.146c-0.203-0.035-0.366-0.105-0.488-0.21
		c-0.123-0.105-0.184-0.252-0.184-0.441v-1.061h1.606v-0.798c0-0.616,0.093-1.169,0.278-1.659c0.185-0.489,0.451-0.906,0.798-1.249
		c0.346-0.343,0.768-0.605,1.265-0.788c0.497-0.182,1.057-0.272,1.68-0.272c0.497,0,0.959,0.066,1.386,0.199l-0.052,1.302
		c-0.014,0.203-0.109,0.329-0.284,0.378c-0.175,0.05-0.378,0.074-0.609,0.074c-0.308,0-0.583,0.033-0.824,0.1
		c-0.242,0.066-0.446,0.182-0.614,0.347c-0.168,0.164-0.296,0.381-0.383,0.65s-0.131,0.604-0.131,1.003v0.714h2.804v1.849h-2.72
		v8.83H124.552z"/>
	<path style="fill:#00AEEF;" d="M134.989,88.909c-0.931,0-1.648-0.264-2.152-0.793c-0.504-0.528-0.756-1.258-0.756-2.189v-6.016
		h-1.092c-0.14,0-0.261-0.046-0.362-0.137s-0.152-0.228-0.152-0.41v-1.028l1.732-0.284l0.546-2.939
		c0.028-0.14,0.093-0.248,0.194-0.325c0.101-0.077,0.229-0.116,0.383-0.116h1.344v3.392h2.835v1.849h-2.835v5.838
		c0,0.336,0.084,0.599,0.252,0.787c0.168,0.189,0.392,0.283,0.672,0.283c0.161,0,0.295-0.019,0.404-0.058
		c0.108-0.038,0.203-0.078,0.283-0.12s0.152-0.083,0.215-0.121s0.126-0.058,0.189-0.058c0.077,0,0.14,0.02,0.189,0.058
		s0.102,0.097,0.158,0.173l0.777,1.261c-0.378,0.314-0.812,0.553-1.302,0.714C136.021,88.829,135.514,88.909,134.989,88.909z"/>
	<path style="fill:#00AEEF;" d="M143.662,88.741V73.139h2.594v6.152c0.427-0.455,0.91-0.817,1.449-1.087
		c0.539-0.269,1.169-0.404,1.89-0.404c0.588,0,1.125,0.121,1.612,0.362c0.486,0.242,0.906,0.594,1.26,1.056s0.626,1.032,0.819,1.712
		c0.193,0.679,0.289,1.459,0.289,2.341c0,0.806-0.109,1.551-0.326,2.236c-0.217,0.687-0.527,1.281-0.929,1.785
		s-0.889,0.898-1.459,1.182c-0.571,0.283-1.209,0.425-1.916,0.425c-0.329,0-0.63-0.033-0.903-0.1s-0.521-0.159-0.746-0.278
		s-0.432-0.264-0.625-0.436c-0.193-0.172-0.376-0.362-0.551-0.572l-0.116,0.725c-0.042,0.182-0.114,0.312-0.215,0.389
		c-0.102,0.077-0.24,0.115-0.415,0.115H143.662z M148.702,79.816c-0.539,0-1,0.113-1.381,0.341s-0.737,0.548-1.065,0.961v4.83
		c0.294,0.364,0.614,0.618,0.96,0.761c0.347,0.144,0.723,0.216,1.129,0.216c0.392,0,0.746-0.073,1.061-0.221
		c0.315-0.146,0.583-0.371,0.803-0.672c0.22-0.301,0.39-0.681,0.509-1.14c0.119-0.458,0.178-0.999,0.178-1.622
		c0-0.63-0.051-1.163-0.152-1.601c-0.101-0.438-0.247-0.793-0.436-1.066c-0.189-0.272-0.418-0.473-0.688-0.599
		C149.351,79.879,149.044,79.816,148.702,79.816z"/>
	<path style="fill:#00AEEF;" d="M158.362,73.139v15.603h-2.593V73.139H158.362z"/>
	<path style="fill:#00AEEF;" d="M163.664,77.968v6.847c0,0.658,0.152,1.167,0.457,1.527c0.304,0.36,0.761,0.541,1.37,0.541
		c0.448,0,0.868-0.1,1.26-0.3c0.392-0.199,0.763-0.474,1.113-0.824v-7.791h2.594v10.773h-1.586c-0.336,0-0.556-0.157-0.661-0.473
		l-0.179-0.861c-0.224,0.225-0.455,0.43-0.693,0.614c-0.238,0.186-0.492,0.344-0.761,0.473c-0.27,0.13-0.56,0.231-0.872,0.305
		s-0.646,0.11-1.003,0.11c-0.588,0-1.107-0.1-1.559-0.299c-0.452-0.2-0.832-0.481-1.139-0.846c-0.308-0.364-0.541-0.796-0.698-1.297
		c-0.158-0.5-0.236-1.052-0.236-1.653v-6.847H163.664z"/>
	<path style="fill:#00AEEF;" d="M177.682,77.8c0.679,0,1.304,0.109,1.875,0.326c0.57,0.217,1.062,0.533,1.475,0.95
		c0.413,0.416,0.735,0.928,0.966,1.533s0.347,1.296,0.347,2.073c0,0.196-0.009,0.359-0.026,0.488
		c-0.018,0.13-0.049,0.231-0.094,0.305c-0.046,0.073-0.107,0.126-0.184,0.157s-0.175,0.048-0.294,0.048h-6.657
		c0.077,1.105,0.374,1.918,0.893,2.436c0.518,0.519,1.204,0.777,2.058,0.777c0.42,0,0.782-0.049,1.087-0.147
		c0.305-0.098,0.57-0.206,0.798-0.325s0.427-0.228,0.599-0.326c0.171-0.098,0.338-0.146,0.499-0.146
		c0.105,0,0.196,0.021,0.273,0.062c0.077,0.042,0.143,0.102,0.199,0.179l0.756,0.945c-0.287,0.336-0.609,0.618-0.966,0.845
		c-0.357,0.228-0.729,0.41-1.118,0.547c-0.389,0.136-0.784,0.232-1.187,0.288c-0.403,0.057-0.793,0.084-1.171,0.084
		c-0.749,0-1.445-0.124-2.089-0.372c-0.644-0.249-1.204-0.616-1.68-1.103s-0.85-1.089-1.124-1.807
		c-0.273-0.717-0.409-1.549-0.409-2.493c0-0.735,0.119-1.427,0.357-2.074c0.238-0.647,0.579-1.211,1.024-1.69
		c0.444-0.479,0.987-0.859,1.627-1.14C176.154,77.94,176.876,77.8,177.682,77.8z M177.734,79.659c-0.756,0-1.348,0.213-1.774,0.64
		c-0.427,0.428-0.7,1.033-0.819,1.816h4.872c0-0.336-0.045-0.652-0.136-0.95c-0.091-0.297-0.231-0.558-0.42-0.782
		c-0.189-0.224-0.427-0.4-0.714-0.53C178.455,79.724,178.119,79.659,177.734,79.659z"/>
	<path style="fill:#00AEEF;" d="M194.901,80.068c-0.07,0.112-0.144,0.19-0.22,0.236c-0.077,0.045-0.175,0.068-0.294,0.068
		c-0.126,0-0.261-0.035-0.404-0.105c-0.144-0.069-0.31-0.148-0.499-0.236c-0.189-0.087-0.404-0.166-0.646-0.236
		c-0.242-0.069-0.527-0.104-0.856-0.104c-0.511,0-0.913,0.108-1.208,0.325c-0.294,0.217-0.441,0.501-0.441,0.851
		c0,0.231,0.075,0.425,0.226,0.583c0.15,0.157,0.35,0.296,0.598,0.414c0.249,0.119,0.53,0.227,0.845,0.32
		c0.315,0.095,0.637,0.198,0.966,0.311c0.329,0.111,0.651,0.239,0.966,0.383s0.597,0.325,0.845,0.546s0.448,0.485,0.599,0.793
		c0.15,0.308,0.226,0.679,0.226,1.113c0,0.518-0.094,0.995-0.283,1.433s-0.466,0.815-0.83,1.134
		c-0.364,0.319-0.814,0.567-1.349,0.746c-0.536,0.179-1.15,0.268-1.843,0.268c-0.371,0-0.733-0.033-1.087-0.1
		s-0.693-0.159-1.019-0.278s-0.626-0.259-0.903-0.42c-0.277-0.161-0.52-0.336-0.73-0.525l0.599-0.986
		c0.077-0.119,0.168-0.21,0.273-0.273c0.105-0.062,0.238-0.095,0.399-0.095s0.313,0.046,0.457,0.137
		c0.143,0.091,0.31,0.189,0.499,0.294c0.189,0.105,0.411,0.203,0.667,0.294c0.255,0.091,0.579,0.137,0.971,0.137
		c0.308,0,0.572-0.037,0.792-0.11c0.221-0.073,0.402-0.17,0.546-0.289c0.144-0.118,0.249-0.257,0.315-0.414
		c0.066-0.158,0.1-0.32,0.1-0.488c0-0.252-0.075-0.459-0.226-0.62c-0.15-0.16-0.35-0.301-0.598-0.42
		c-0.249-0.119-0.532-0.226-0.851-0.32c-0.319-0.094-0.644-0.197-0.977-0.31c-0.333-0.111-0.658-0.243-0.977-0.394
		s-0.602-0.342-0.851-0.572c-0.249-0.231-0.448-0.515-0.598-0.851c-0.151-0.336-0.226-0.742-0.226-1.218
		c0-0.441,0.087-0.861,0.263-1.26c0.175-0.399,0.432-0.748,0.771-1.045c0.34-0.298,0.763-0.536,1.271-0.714
		c0.508-0.179,1.094-0.269,1.759-0.269c0.742,0,1.417,0.123,2.027,0.368c0.609,0.245,1.116,0.566,1.522,0.966L194.901,80.068z"/>
	<path style="fill:#00AEEF;" d="M196.371,77.968h2.058c0.196,0,0.361,0.046,0.494,0.137s0.217,0.207,0.252,0.347l1.543,5.754
		c0.084,0.315,0.152,0.623,0.205,0.924c0.052,0.302,0.103,0.603,0.152,0.903c0.077-0.301,0.159-0.602,0.247-0.903
		c0.087-0.301,0.18-0.608,0.278-0.924l1.785-5.774c0.042-0.141,0.126-0.256,0.252-0.347s0.273-0.137,0.441-0.137h1.145
		c0.189,0,0.347,0.046,0.473,0.137s0.21,0.206,0.252,0.347l1.764,5.88c0.091,0.301,0.173,0.593,0.247,0.876
		c0.074,0.284,0.146,0.569,0.215,0.856c0.049-0.301,0.103-0.603,0.163-0.903s0.135-0.612,0.226-0.935l1.596-5.754
		c0.035-0.14,0.119-0.256,0.252-0.347c0.133-0.091,0.287-0.137,0.462-0.137h1.963l-3.413,10.773h-2.089
		c-0.224,0-0.385-0.154-0.483-0.462l-1.943-6.227c-0.063-0.203-0.121-0.408-0.173-0.614c-0.052-0.206-0.096-0.411-0.131-0.614
		c-0.042,0.21-0.088,0.418-0.137,0.625c-0.049,0.206-0.105,0.414-0.168,0.624l-1.963,6.206c-0.098,0.308-0.287,0.462-0.567,0.462
		h-1.985L196.371,77.968z"/>
	<path style="fill:#00AEEF;" d="M217.444,74.829c0,0.224-0.046,0.434-0.137,0.63c-0.091,0.195-0.212,0.367-0.362,0.515
		c-0.15,0.146-0.327,0.264-0.53,0.352c-0.203,0.087-0.42,0.131-0.651,0.131c-0.224,0-0.436-0.044-0.635-0.131
		c-0.199-0.088-0.373-0.205-0.52-0.352c-0.147-0.147-0.265-0.319-0.352-0.515c-0.087-0.196-0.131-0.406-0.131-0.63
		c0-0.231,0.044-0.448,0.131-0.651s0.205-0.378,0.352-0.525c0.147-0.146,0.32-0.264,0.52-0.352c0.2-0.087,0.411-0.131,0.635-0.131
		c0.231,0,0.448,0.044,0.651,0.131c0.203,0.088,0.38,0.205,0.53,0.352c0.15,0.147,0.271,0.322,0.362,0.525
		S217.444,74.598,217.444,74.829z M217.056,77.968v10.773h-2.593V77.968H217.056z"/>
	<path style="fill:#00AEEF;" d="M223.523,88.909c-0.931,0-1.648-0.264-2.152-0.793c-0.504-0.528-0.756-1.258-0.756-2.189v-6.016
		h-1.092c-0.14,0-0.261-0.046-0.362-0.137s-0.152-0.228-0.152-0.41v-1.028l1.732-0.284l0.546-2.939
		c0.028-0.14,0.093-0.248,0.194-0.325c0.101-0.077,0.229-0.116,0.383-0.116h1.344v3.392h2.835v1.849h-2.835v5.838
		c0,0.336,0.084,0.599,0.252,0.787c0.168,0.189,0.392,0.283,0.672,0.283c0.161,0,0.295-0.019,0.404-0.058
		c0.108-0.038,0.203-0.078,0.283-0.12s0.152-0.083,0.215-0.121s0.126-0.058,0.189-0.058c0.077,0,0.14,0.02,0.189,0.058
		s0.102,0.097,0.158,0.173l0.777,1.261c-0.378,0.314-0.812,0.553-1.302,0.714C224.556,88.829,224.049,88.909,223.523,88.909z"/>
	<path style="fill:#00AEEF;" d="M235.683,80.247c-0.077,0.098-0.152,0.175-0.226,0.23c-0.074,0.057-0.181,0.084-0.32,0.084
		c-0.133,0-0.263-0.04-0.389-0.12c-0.126-0.081-0.276-0.172-0.452-0.273c-0.175-0.102-0.383-0.192-0.625-0.273
		c-0.242-0.08-0.541-0.12-0.898-0.12c-0.455,0-0.854,0.082-1.197,0.246c-0.343,0.165-0.628,0.401-0.856,0.709
		c-0.228,0.309-0.397,0.681-0.509,1.118s-0.168,0.934-0.168,1.486c0,0.574,0.062,1.085,0.184,1.533
		c0.122,0.447,0.299,0.824,0.53,1.128c0.231,0.305,0.511,0.536,0.84,0.693s0.7,0.236,1.113,0.236s0.747-0.051,1.003-0.152
		c0.255-0.102,0.471-0.214,0.646-0.336c0.175-0.122,0.327-0.234,0.457-0.336c0.129-0.102,0.274-0.152,0.436-0.152
		c0.21,0,0.368,0.08,0.473,0.241l0.746,0.945c-0.287,0.336-0.599,0.618-0.935,0.845c-0.336,0.228-0.685,0.41-1.045,0.547
		c-0.36,0.136-0.733,0.232-1.118,0.288c-0.385,0.057-0.767,0.084-1.145,0.084c-0.665,0-1.292-0.124-1.879-0.372
		c-0.588-0.249-1.101-0.611-1.538-1.087c-0.438-0.477-0.784-1.059-1.04-1.748c-0.256-0.689-0.383-1.476-0.383-2.357
		c0-0.791,0.114-1.524,0.341-2.2c0.227-0.675,0.562-1.26,1.002-1.753c0.441-0.494,0.987-0.881,1.638-1.161
		c0.651-0.279,1.4-0.42,2.247-0.42c0.805,0,1.51,0.13,2.116,0.389c0.605,0.26,1.149,0.63,1.633,1.113L235.683,80.247z"/>
	<path style="fill:#00AEEF;" d="M238.129,88.741V73.139h2.593v5.995c0.42-0.399,0.882-0.721,1.386-0.966
		c0.504-0.245,1.095-0.368,1.774-0.368c0.588,0,1.109,0.101,1.564,0.3s0.834,0.479,1.139,0.84s0.536,0.791,0.693,1.292
		c0.158,0.5,0.236,1.052,0.236,1.653v6.856h-2.593v-6.856c0-0.658-0.152-1.167-0.457-1.527c-0.304-0.361-0.761-0.541-1.37-0.541
		c-0.448,0-0.868,0.102-1.26,0.305s-0.763,0.479-1.113,0.829v7.791H238.129z"/>
</g>
<g style="opacity:0.8;enable-background:new    ;">
	<path style="fill:#00AEEF;" d="M102.579,106.741v-7.695h1.132c0.24,0,0.397,0.113,0.473,0.338l0.127,0.607
		c0.155-0.16,0.318-0.305,0.491-0.435c0.172-0.131,0.355-0.243,0.547-0.338s0.399-0.168,0.619-0.218
		c0.22-0.05,0.46-0.075,0.72-0.075c0.42,0,0.792,0.071,1.117,0.214c0.325,0.143,0.597,0.343,0.814,0.601
		c0.217,0.257,0.382,0.564,0.495,0.922c0.112,0.357,0.168,0.752,0.168,1.182v4.897h-1.853v-4.897c0-0.47-0.108-0.834-0.326-1.091
		c-0.217-0.258-0.543-0.387-0.979-0.387c-0.32,0-0.62,0.072-0.9,0.218c-0.28,0.145-0.545,0.342-0.795,0.592v5.565H102.579z"/>
	<path style="fill:#00AEEF;" d="M114.286,98.925c0.485,0,0.931,0.078,1.339,0.233c0.407,0.154,0.759,0.381,1.054,0.679
		c0.295,0.297,0.525,0.662,0.69,1.095s0.248,0.926,0.248,1.481c0,0.14-0.006,0.256-0.019,0.349
		c-0.013,0.093-0.035,0.165-0.068,0.217c-0.032,0.053-0.076,0.091-0.131,0.113c-0.055,0.022-0.125,0.033-0.21,0.033h-4.755
		c0.055,0.79,0.268,1.37,0.638,1.74s0.86,0.555,1.47,0.555c0.3,0,0.559-0.034,0.776-0.104c0.218-0.07,0.408-0.147,0.57-0.232
		c0.162-0.085,0.305-0.163,0.427-0.232c0.123-0.07,0.241-0.105,0.356-0.105c0.075,0,0.14,0.015,0.195,0.045s0.103,0.072,0.143,0.128
		l0.54,0.675c-0.205,0.24-0.435,0.441-0.69,0.604c-0.255,0.163-0.521,0.293-0.799,0.391c-0.278,0.097-0.56,0.166-0.848,0.206
		s-0.566,0.06-0.836,0.06c-0.535,0-1.032-0.089-1.492-0.266c-0.46-0.178-0.86-0.44-1.2-0.788s-0.607-0.777-0.802-1.29
		c-0.195-0.513-0.292-1.106-0.292-1.781c0-0.524,0.085-1.019,0.255-1.481c0.17-0.462,0.414-0.864,0.731-1.207
		c0.317-0.343,0.705-0.614,1.162-0.813C113.195,99.026,113.711,98.925,114.286,98.925z M114.324,100.253
		c-0.54,0-0.962,0.152-1.268,0.457c-0.305,0.306-0.5,0.738-0.585,1.298h3.48c0-0.24-0.033-0.466-0.098-0.679s-0.165-0.398-0.3-0.559
		s-0.305-0.286-0.51-0.379C114.839,100.299,114.599,100.253,114.324,100.253z"/>
	<path style="fill:#00AEEF;" d="M118.186,99.045h1.47c0.14,0,0.257,0.033,0.353,0.098c0.095,0.065,0.155,0.147,0.18,0.248
		l1.103,4.109c0.06,0.226,0.108,0.445,0.146,0.66s0.074,0.43,0.109,0.646c0.055-0.216,0.114-0.431,0.176-0.646
		s0.128-0.435,0.199-0.66l1.275-4.125c0.03-0.1,0.09-0.183,0.18-0.247c0.09-0.065,0.195-0.098,0.315-0.098h0.817
		c0.135,0,0.248,0.032,0.337,0.098c0.09,0.064,0.15,0.147,0.18,0.247l1.26,4.2c0.065,0.215,0.124,0.424,0.176,0.626
		c0.053,0.203,0.104,0.406,0.154,0.611c0.035-0.215,0.074-0.43,0.116-0.645s0.096-0.438,0.161-0.668l1.14-4.109
		c0.025-0.101,0.085-0.183,0.18-0.248c0.095-0.064,0.205-0.098,0.33-0.098h1.402l-2.438,7.695h-1.493c-0.16,0-0.275-0.11-0.345-0.33
		l-1.388-4.447c-0.045-0.146-0.086-0.291-0.124-0.438s-0.069-0.294-0.094-0.439c-0.03,0.15-0.062,0.299-0.098,0.446
		s-0.075,0.297-0.12,0.446l-1.402,4.433c-0.07,0.22-0.205,0.33-0.405,0.33h-1.417L118.186,99.045z"/>
	<path style="fill:#00AEEF;" d="M139.448,99.811c0,0.13-0.024,0.256-0.071,0.379c-0.048,0.122-0.104,0.226-0.169,0.311l-3.66,4.815
		h3.795v1.425h-5.948v-0.772c0-0.085,0.02-0.187,0.06-0.304s0.103-0.229,0.188-0.334l3.69-4.867h-3.72v-1.418h5.835V99.811z"/>
	<path style="fill:#00AEEF;" d="M144.105,98.925c0.485,0,0.931,0.078,1.339,0.233c0.407,0.154,0.759,0.381,1.054,0.679
		c0.295,0.297,0.525,0.662,0.69,1.095s0.248,0.926,0.248,1.481c0,0.14-0.006,0.256-0.019,0.349
		c-0.013,0.093-0.035,0.165-0.068,0.217c-0.032,0.053-0.076,0.091-0.131,0.113c-0.055,0.022-0.125,0.033-0.21,0.033h-4.755
		c0.055,0.79,0.268,1.37,0.638,1.74s0.86,0.555,1.47,0.555c0.3,0,0.559-0.034,0.776-0.104c0.218-0.07,0.408-0.147,0.57-0.232
		c0.162-0.085,0.305-0.163,0.427-0.232c0.123-0.07,0.241-0.105,0.356-0.105c0.075,0,0.14,0.015,0.195,0.045s0.103,0.072,0.143,0.128
		l0.54,0.675c-0.205,0.24-0.435,0.441-0.69,0.604c-0.255,0.163-0.521,0.293-0.799,0.391c-0.278,0.097-0.56,0.166-0.848,0.206
		s-0.566,0.06-0.836,0.06c-0.535,0-1.032-0.089-1.492-0.266c-0.46-0.178-0.86-0.44-1.2-0.788s-0.607-0.777-0.802-1.29
		c-0.195-0.513-0.292-1.106-0.292-1.781c0-0.524,0.085-1.019,0.255-1.481c0.17-0.462,0.414-0.864,0.731-1.207
		c0.317-0.343,0.705-0.614,1.162-0.813C143.014,99.026,143.53,98.925,144.105,98.925z M144.143,100.253
		c-0.54,0-0.962,0.152-1.268,0.457c-0.305,0.306-0.5,0.738-0.585,1.298h3.48c0-0.24-0.033-0.466-0.098-0.679s-0.165-0.398-0.3-0.559
		s-0.305-0.286-0.51-0.379C144.658,100.299,144.418,100.253,144.143,100.253z"/>
	<path style="fill:#00AEEF;" d="M154.973,106.741h-0.833c-0.175,0-0.312-0.026-0.413-0.079c-0.1-0.052-0.175-0.158-0.225-0.318
		l-0.165-0.548c-0.195,0.176-0.386,0.329-0.574,0.462c-0.188,0.132-0.381,0.243-0.581,0.333c-0.2,0.091-0.413,0.158-0.638,0.203
		c-0.225,0.045-0.475,0.067-0.75,0.067c-0.325,0-0.625-0.044-0.9-0.132s-0.511-0.22-0.708-0.395
		c-0.198-0.176-0.352-0.395-0.461-0.655s-0.165-0.564-0.165-0.91c0-0.291,0.076-0.578,0.229-0.862
		c0.152-0.283,0.406-0.539,0.761-0.767c0.355-0.229,0.827-0.418,1.417-0.568c0.59-0.15,1.322-0.226,2.197-0.226v-0.454
		c0-0.519-0.109-0.903-0.326-1.152s-0.534-0.374-0.949-0.374c-0.3,0-0.55,0.035-0.75,0.105c-0.2,0.069-0.374,0.148-0.521,0.235
		c-0.147,0.088-0.284,0.167-0.409,0.236c-0.125,0.07-0.262,0.105-0.412,0.105c-0.125,0-0.233-0.032-0.323-0.098
		c-0.09-0.064-0.163-0.145-0.217-0.24l-0.338-0.592c0.885-0.811,1.953-1.216,3.203-1.216c0.45,0,0.852,0.074,1.204,0.222
		c0.353,0.147,0.651,0.353,0.896,0.615s0.431,0.576,0.559,0.941c0.127,0.364,0.191,0.765,0.191,1.199V106.741z M151.373,105.585
		c0.19,0,0.365-0.017,0.525-0.052c0.16-0.034,0.312-0.086,0.454-0.154c0.142-0.069,0.28-0.154,0.412-0.255
		c0.133-0.101,0.267-0.221,0.401-0.358v-1.288c-0.54,0-0.991,0.034-1.354,0.103c-0.363,0.067-0.654,0.154-0.874,0.26
		c-0.22,0.106-0.376,0.229-0.469,0.371c-0.092,0.141-0.139,0.294-0.139,0.46c0,0.328,0.096,0.562,0.289,0.703
		C150.812,105.515,151.063,105.585,151.373,105.585z"/>
	<path style="fill:#00AEEF;" d="M158.768,95.596v11.145h-1.853V95.596H158.768z"/>
	<path style="fill:#00AEEF;" d="M166.891,106.741h-0.833c-0.175,0-0.312-0.026-0.413-0.079c-0.1-0.052-0.175-0.158-0.225-0.318
		l-0.165-0.548c-0.195,0.176-0.386,0.329-0.574,0.462c-0.188,0.132-0.381,0.243-0.581,0.333c-0.2,0.091-0.413,0.158-0.638,0.203
		c-0.225,0.045-0.475,0.067-0.75,0.067c-0.325,0-0.625-0.044-0.9-0.132s-0.511-0.22-0.708-0.395
		c-0.198-0.176-0.352-0.395-0.461-0.655s-0.165-0.564-0.165-0.91c0-0.291,0.076-0.578,0.229-0.862
		c0.152-0.283,0.406-0.539,0.761-0.767c0.355-0.229,0.827-0.418,1.417-0.568c0.59-0.15,1.322-0.226,2.197-0.226v-0.454
		c0-0.519-0.109-0.903-0.326-1.152s-0.534-0.374-0.949-0.374c-0.3,0-0.55,0.035-0.75,0.105c-0.2,0.069-0.374,0.148-0.521,0.235
		c-0.147,0.088-0.284,0.167-0.409,0.236c-0.125,0.07-0.262,0.105-0.412,0.105c-0.125,0-0.233-0.032-0.323-0.098
		c-0.09-0.064-0.163-0.145-0.217-0.24l-0.338-0.592c0.885-0.811,1.953-1.216,3.203-1.216c0.45,0,0.852,0.074,1.204,0.222
		c0.353,0.147,0.651,0.353,0.896,0.615s0.431,0.576,0.559,0.941c0.127,0.364,0.191,0.765,0.191,1.199V106.741z M163.29,105.585
		c0.19,0,0.365-0.017,0.525-0.052c0.16-0.034,0.312-0.086,0.454-0.154c0.142-0.069,0.28-0.154,0.412-0.255
		c0.133-0.101,0.267-0.221,0.401-0.358v-1.288c-0.54,0-0.991,0.034-1.354,0.103c-0.363,0.067-0.654,0.154-0.874,0.26
		c-0.22,0.106-0.376,0.229-0.469,0.371c-0.092,0.141-0.139,0.294-0.139,0.46c0,0.328,0.096,0.562,0.289,0.703
		C162.729,105.515,162.98,105.585,163.29,105.585z"/>
	<path style="fill:#00AEEF;" d="M168.713,106.741v-7.695h1.132c0.24,0,0.397,0.113,0.473,0.338l0.127,0.607
		c0.155-0.16,0.318-0.305,0.491-0.435c0.172-0.131,0.355-0.243,0.547-0.338s0.399-0.168,0.619-0.218
		c0.22-0.05,0.46-0.075,0.72-0.075c0.42,0,0.792,0.071,1.117,0.214c0.325,0.143,0.597,0.343,0.814,0.601
		c0.217,0.257,0.382,0.564,0.495,0.922c0.112,0.357,0.168,0.752,0.168,1.182v4.897h-1.853v-4.897c0-0.47-0.108-0.834-0.326-1.091
		c-0.217-0.258-0.543-0.387-0.979-0.387c-0.32,0-0.62,0.072-0.9,0.218c-0.28,0.145-0.545,0.342-0.795,0.592v5.565H168.713z"/>
	<path style="fill:#00AEEF;" d="M182.655,106.741c-0.24,0-0.397-0.112-0.472-0.338l-0.15-0.742c-0.16,0.18-0.328,0.343-0.503,0.487
		c-0.175,0.146-0.364,0.271-0.566,0.375c-0.203,0.105-0.42,0.187-0.653,0.244c-0.232,0.058-0.483,0.086-0.753,0.086
		c-0.42,0-0.805-0.087-1.155-0.263c-0.35-0.175-0.651-0.429-0.904-0.761c-0.252-0.333-0.447-0.744-0.585-1.233
		c-0.137-0.49-0.206-1.051-0.206-1.681c0-0.569,0.078-1.1,0.232-1.59s0.377-0.915,0.667-1.275c0.29-0.359,0.638-0.641,1.042-0.844
		c0.405-0.202,0.86-0.304,1.365-0.304c0.43,0,0.797,0.069,1.103,0.207c0.305,0.137,0.577,0.321,0.817,0.551v-4.064h1.853v11.145
		H182.655z M180.188,105.383c0.385,0,0.712-0.08,0.982-0.24s0.525-0.388,0.765-0.683v-3.45c-0.21-0.255-0.439-0.435-0.687-0.539
		c-0.247-0.105-0.514-0.158-0.798-0.158c-0.28,0-0.534,0.053-0.761,0.158c-0.228,0.104-0.42,0.264-0.578,0.476
		c-0.158,0.213-0.279,0.482-0.364,0.811c-0.085,0.327-0.127,0.714-0.127,1.158c0,0.45,0.036,0.831,0.108,1.144
		c0.073,0.312,0.176,0.568,0.312,0.766c0.135,0.197,0.3,0.34,0.495,0.428C179.73,105.339,179.948,105.383,180.188,105.383z"/>
</g>
</svg>
