<?xml version="1.0" encoding="utf-8"?>
<svg xmlns="http://www.w3.org/2000/svg" fill-rule="evenodd" width="200" height="31" viewBox="0 0 200 31">
  <path fill="#2cbfcc" d="M120.5 6.44l-.01 15.42c0 1.47-.19 2.9-.73 4.28a6.82 6.82 0 0 1-4.15 3.95c-1.66.64-3.4.74-5.16.65a10.45 10.45 0 0 1-3.99-.91 7.45 7.45 0 0 1-3.96-4.44l-.06-.18h4.82l.08.08a4.5 4.5 0 0 0 2.73 1.32 8 8 0 0 0 3.39-.18 3.3 3.3 0 0 0 2.6-3.13c.04-.49.05-.98.02-1.5l-.17.16c-1.61 1.56-3.57 2.07-5.76 1.93-3.92-.24-7.08-3.49-7.58-7.3-.28-2.1-.15-4.17.83-6.09a7.77 7.77 0 0 1 6.25-4.47 7.42 7.42 0 0 1 5.89 1.8l.58.5v-1.9h4.38zm75-.02l-5.01 10.97-4.58-10.97h-4.47l6.66 16.18-3.58 7.71 4.53.01L200 6.42h-4.5zm-58.73.44a9.66 9.66 0 0 0-5.5-.8 8.52 8.52 0 0 0-6.89 4.95 9.4 9.4 0 0 0-.76 5.97 8.47 8.47 0 0 0 5.96 6.92c1.67.57 3.4.58 5.14.32a8.47 8.47 0 0 0 5.87-3.6l.06-.1-3.7-1.73-.1.1a6.04 6.04 0 0 1-4.83 1.59 4.64 4.64 0 0 1-4.2-3.52l-.11-.51h14.1l.01-.16c.04-1.18-.02-2.35-.3-3.5a8.57 8.57 0 0 0-4.75-5.93zm32.48 3.96a6.06 6.06 0 0 1 7.43 1.16l3.65-2.03a8.84 8.84 0 0 0-3.99-3.21c-1.76-.73-3.6-.9-5.5-.68a9.54 9.54 0 0 0-5.74 2.66 8.67 8.67 0 0 0-2.6 8.03 8.64 8.64 0 0 0 6.17 7.12c1.7.56 3.44.61 5.2.4a9.2 9.2 0 0 0 6.27-3.55l-3.44-2.36a5.93 5.93 0 0 1-4.96 2 5.07 5.07 0 0 1-3.77-1.72 5 5 0 0 1-1.15-3.78 4.85 4.85 0 0 1 2.43-4.04zM86.88.25l-9.11 23.66 4.66.01 1.93-4.88H94l1.87 4.88h4.67L91.42.25h-4.54zM47.05 6.42l6 8.28-6.63 9.22 5.03-.01 6.66-9.2-6-8.3-5.06.01zm-1.36 0h-5.07l6 8.28-6.63 9.22 5.03-.01 6.66-9.2-5.99-8.3zm103.17.02V8.2l.25-.19c.9-.72 1.83-1.39 2.96-1.72 2.36-.7 4.5-.3 6.34 1.42.85.8 1.28 1.83 1.46 2.97.1.59.14 1.2.14 1.79.02 3.72.01 11.43.01 11.43h-4.35s0-6.12-.02-9.01c0-.85-.08-1.7-.2-2.54-.2-1.3-1.07-2.17-2.26-2.33a3.43 3.43 0 0 0-3.64 1.98 5.95 5.95 0 0 0-.63 2.7l-.05 9.2h-4.36V6.44h4.35zm-33.62 11.88a4.34 4.34 0 0 1-3.9 1.61 4.64 4.64 0 0 1-4.47-4.05c-.05-.3-.06-.61-.08-.86.06-2.11.9-3.7 2.83-4.56 1.98-.87 5.09-.5 6.28 2.3a5.21 5.21 0 0 1-.66 5.56zm-22.92-3.68l-3.13-8.1-3.14 8.1h6.27zm45.06-1.67c-.42-1.88-2.5-3.32-4.7-3.28a4.76 4.76 0 0 0-4.73 3.28h9.43z"/>
  <path fill="#1e4068" d="M35.77 6.86a9.67 9.67 0 0 0-5.5-.8A8.52 8.52 0 0 0 23.38 11a9.39 9.39 0 0 0-.76 5.97 8.46 8.46 0 0 0 5.97 6.92c1.67.57 3.4.58 5.13.32a8.47 8.47 0 0 0 5.87-3.6l.06-.1-3.7-1.73-.1.1a6.04 6.04 0 0 1-4.83 1.59 4.64 4.64 0 0 1-4.2-3.52l-.1-.51H40.8l.02-.16c.04-1.18-.02-2.35-.3-3.5a8.57 8.57 0 0 0-4.75-5.93zM18.9.28v23.64h-4.28L4.48 8.42V23.9H0V.26h4.26l10.18 15.56V.28h4.47zm37.38 18.8l3.52 4.84h5.08l-6.07-8.33-2.53 3.5zM73.45 0v6.42h2.58v3.78h-2.6l.02 13.7h-4.37V10.21h-2.23V6.43h2.21V0h4.39zm-9.3 6.44H59.1l-2.83 3.87 2.54 3.52 5.33-7.4zm-27.76 6.53c-.43-1.88-2.5-3.32-4.7-3.28a4.76 4.76 0 0 0-4.74 3.28h9.44z"/>
</svg>
