<?xml version="1.0" encoding="UTF-8"?><svg id="Layer_1" xmlns="http://www.w3.org/2000/svg" viewBox="0 0 400 45.67"><defs><style>.cls-1{fill:#231f20;}</style></defs><path class="cls-1" d="m70.45,12.48c0-1.27-.7-1.32-1.24-1.32h-.31v-.52c.56,0,1.64.07,2.7.07s1.88-.07,2.8-.07c2.19,0,4.14.59,4.14,3.07,0,1.57-1.04,2.53-2.42,3.07l2.98,4.46c.49.73.84.94,1.69,1.05v.52c-.57,0-1.13-.07-1.71-.07-.54,0-1.1.07-1.64.07-1.34-1.76-2.49-3.64-3.62-5.64h-1.15v3.73c0,1.34.63,1.39,1.43,1.39h.31v.52c-.99,0-2-.07-3-.07-.84,0-1.66.07-2.53.07v-.52h.31c.64,0,1.24-.3,1.24-.94v-8.85Zm2.23,4.04h.85c1.74,0,2.68-.66,2.68-2.72,0-1.55-.99-2.54-2.54-2.54-.52,0-.75.05-.99.07v5.19Z"/><path class="cls-1" d="m84.53,22.26h.24c.63,0,1.29-.09,1.29-.99v-9.13c0-.91-.66-.99-1.29-.99h-.24v-.52c1.06,0,2.87.07,4.34.07s3.27-.07,4.46-.07c-.04.75-.02,1.9.03,2.67l-.52.14c-.09-1.13-.3-2.04-2.13-2.04h-2.42v4.56h2.07c1.05,0,1.27-.59,1.38-1.53h.52c-.04.68-.05,1.36-.05,2.04s.02,1.32.05,1.99l-.52.11c-.11-1.05-.16-1.73-1.36-1.73h-2.09v4.06c0,1.13,1.01,1.13,2.13,1.13,2.09,0,3.01-.14,3.54-2.13l.49.12c-.23.92-.44,1.85-.59,2.77-1.11,0-3.12-.07-4.69-.07s-3.64.07-4.63.07v-.52Z"/><path class="cls-1" d="m104.95,13.21c-.12-1.13-.85-2.21-2.05-2.21-1.38,0-2.14.82-2.14,2.19,0,2.89,5.23,2.02,5.23,6.2,0,2.4-1.99,3.66-4.22,3.66-.98,0-1.92-.35-2.77-.78-.09-.89-.21-1.76-.3-2.65l.49-.1c.21,1.48,1.05,2.77,2.7,2.77,1.19,0,2.14-.75,2.14-1.99,0-3.08-5.12-2.12-5.12-6.32,0-2.26,1.6-3.61,3.85-3.61.49,0,1.97.19,2.51.26,0,.82.07,1.66.17,2.49l-.49.09Z"/><path class="cls-1" d="m110.5,22.26h.24c.63,0,1.29-.09,1.29-.99v-9.13c0-.91-.66-.99-1.29-.99h-.24v-.52c1.06,0,2.87.07,4.34.07s3.27-.07,4.46-.07c-.04.75-.02,1.9.03,2.67l-.52.14c-.09-1.13-.3-2.04-2.13-2.04h-2.42v4.56h2.07c1.05,0,1.27-.59,1.38-1.53h.52c-.04.68-.05,1.36-.05,2.04s.02,1.32.05,1.99l-.52.11c-.11-1.05-.16-1.73-1.36-1.73h-2.09v4.06c0,1.13,1.01,1.13,2.13,1.13,2.09,0,3.01-.14,3.54-2.13l.49.12c-.23.92-.44,1.85-.59,2.77-1.11,0-3.12-.07-4.69-.07s-3.64.07-4.63.07v-.52Z"/><path class="cls-1" d="m126.25,12.48c0-1.27-.7-1.32-1.24-1.32h-.31v-.52c.56,0,1.64.07,2.7.07s1.88-.07,2.8-.07c2.19,0,4.14.59,4.14,3.07,0,1.57-1.04,2.53-2.42,3.07l2.98,4.46c.49.73.84.94,1.69,1.05v.52c-.57,0-1.13-.07-1.71-.07-.54,0-1.1.07-1.64.07-1.34-1.76-2.49-3.64-3.62-5.64h-1.15v3.73c0,1.34.63,1.39,1.43,1.39h.31v.52c-.99,0-2-.07-3-.07-.84,0-1.66.07-2.53.07v-.52h.31c.64,0,1.24-.3,1.24-.94v-8.85Zm2.23,4.04h.85c1.74,0,2.68-.66,2.68-2.72,0-1.55-.99-2.54-2.54-2.54-.52,0-.75.05-.99.07v5.19Z"/><path class="cls-1" d="m143.75,11.15h-.4c-.64,0-.91.26-.91.49,0,.09.07.33.16.56l2.98,7.75h.03l2.77-7.25c.21-.54.23-.85.23-.98,0-.5-.52-.57-1.11-.57h-.3v-.52c.61,0,1.27.07,2.02.07.54,0,1.1-.07,1.6-.07v.52h-.17c-.31,0-.64.05-.92.61-.14.24-2.68,6.67-3.81,9.56-.23.57-.5,1.15-.71,1.72h-.64l-4.42-10.9c-.33-.82-.7-.99-1.46-.99h-.17v-.52c.89,0,1.8.07,2.68.07s2.07-.07,2.58-.07v.52Z"/><path class="cls-1" d="m154.06,22.26h.24c.63,0,1.29-.09,1.29-.99v-9.13c0-.91-.66-.99-1.29-.99h-.24v-.52c1.06,0,2.87.07,4.34.07s3.27-.07,4.46-.07c-.04.75-.02,1.9.03,2.67l-.52.14c-.09-1.13-.3-2.04-2.13-2.04h-2.42v4.56h2.07c1.05,0,1.27-.59,1.38-1.53h.52c-.04.68-.05,1.36-.05,2.04s.02,1.32.05,1.99l-.52.11c-.11-1.05-.16-1.73-1.36-1.73h-2.09v4.06c0,1.13,1.01,1.13,2.13,1.13,2.09,0,3.01-.14,3.54-2.13l.49.12c-.23.92-.44,1.85-.59,2.77-1.11,0-3.12-.07-4.69-.07s-3.64.07-4.63.07v-.52Z"/><path class="cls-1" d="m175.47,22.27h.24c.63,0,1.29-.09,1.29-.99v-9.13c0-.91-.66-.99-1.29-.99h-.24v-.52c.77,0,1.74.07,2.72.07s1.99-.07,2.79-.07c2.93,0,4.02,1.22,4.02,2.73,0,1.78-1.64,2.54-3.17,2.82v.03c1.9-.05,3.89,1.01,3.89,3.12,0,1.88-1.85,3.45-4.11,3.45-.87,0-1.97-.07-3.05-.07s-2.33.07-3.08.07v-.52Zm3.76-6.31h.85c1.48,0,2.58-.63,2.58-2.26,0-2-1.2-2.44-2.39-2.44h-1.05v4.7Zm0,4.72c0,1.22.23,1.48,1.57,1.48,1.48,0,2.58-1.2,2.58-2.75,0-1.93-1.29-2.82-3.03-2.82h-1.11v4.09Z"/><path class="cls-1" d="m191.4,20.3c-.17.59-.38,1.05-.38,1.36,0,.52.73.61,1.31.61h.19v.52c-.7-.03-1.41-.07-2.11-.07-.63,0-1.25.03-1.88.07v-.52h.1c.68,0,1.25-.4,1.52-1.13l2.79-7.99c.23-.65.54-1.52.64-2.16.56-.19,1.25-.54,1.59-.75.05-.02.09-.03.14-.03s.09,0,.12.05c.05.14.11.3.16.44l3.2,9.11c.21.61.42,1.25.64,1.78.21.49.58.7,1.15.7h.11v.52c-.78-.03-1.57-.07-2.4-.07s-1.73.03-2.61.07v-.52h.19c.4,0,1.08-.07,1.08-.51,0-.23-.16-.7-.35-1.25l-.68-2.02h-3.95l-.56,1.81Zm2.54-7.72h-.03l-1.62,4.93h3.26l-1.6-4.93Z"/><path class="cls-1" d="m214.88,19.36l.03-.03v-6.53c0-1.43-.99-1.64-1.52-1.64h-.38v-.52c.82,0,1.62.07,2.44.07.72,0,1.43-.07,2.14-.07v.52h-.26c-.73,0-1.55.14-1.55,2.21v7.93c0,.61.02,1.22.11,1.76h-.66l-8.97-10v7.18c0,1.52.3,2.04,1.64,2.04h.3v.52c-.75,0-1.5-.07-2.25-.07s-1.59.07-2.37.07v-.52h.24c1.2,0,1.57-.82,1.57-2.21v-7.33c0-.98-.8-1.57-1.58-1.57h-.23v-.52c.66,0,1.34.07,2,.07.52,0,1.03-.07,1.55-.07l7.75,8.73Z"/><path class="cls-1" d="m220.61,22.26h.24c.63,0,1.29-.09,1.29-.99v-9.13c0-.91-.66-.99-1.29-.99h-.24v-.52c.7,0,1.74.07,2.63.07.94,0,2.06-.07,2.77-.07v.52h-.21c-.52,0-1.43.02-1.43.99v9.13c0,.98.91.99,1.43.99h.21v.52c-.71,0-1.83-.07-2.77-.07-.89,0-1.93.07-2.63.07v-.52Zm7.07-11.64c.75,0,1.48.07,2.23.07s1.55-.07,2.34-.07v.52h-.23c-1.15,0-2.09.78-2.8,1.55l-2.75,2.98,4.48,5.63c.37.52.92.96,1.59.96v.52c-.58,0-1.19-.04-1.78-.04-.56,0-1.1.04-1.66.04-.16-.33-.66-1.03-.91-1.31l-3.76-4.7,3.66-4.08c.23-.23.77-.82.77-1.19,0-.35-.75-.37-.97-.37h-.19v-.52Z"/><path class="cls-1" d="m249.63,10.37c3.71,0,6.67,2.3,6.67,6.01,0,4.01-2.87,6.67-6.58,6.67s-6.51-2.51-6.51-6.25,2.8-6.43,6.43-6.43m.26,11.91c3.38,0,3.97-2.98,3.97-5.52s-1.38-5.63-4.27-5.63c-3.05,0-3.95,2.72-3.95,5.05,0,3.12,1.43,6.1,4.25,6.1"/><path class="cls-1" d="m263.63,15.96h2.44c.86,0,1.11-.54,1.11-1.41h.52c-.03.63-.07,1.24-.07,1.86,0,.72.02,1.41.07,2.13h-.52c0-.97-.28-1.71-1.39-1.71h-2.16v4.44c0,.98.8.99,1.67.99h.23v.52c-.82,0-2-.07-3-.07-.91,0-1.97.07-2.66.07v-.52h.24c.63,0,1.29-.09,1.29-.99v-9.13c0-.91-.66-.99-1.29-.99h-.24v-.52c1.06,0,2.87.07,4.34.07s3.28-.07,4.46-.07c-.03.75-.02,1.9.03,2.66l-.52.14c-.1-1.2-.38-2.04-1.76-2.04h-2.79v4.56Z"/><path class="cls-1" d="m282.51,20.3c-.17.59-.38,1.05-.38,1.36,0,.52.73.61,1.31.61h.19v.52c-.7-.03-1.41-.07-2.11-.07-.63,0-1.25.03-1.88.07v-.52h.11c.68,0,1.25-.4,1.52-1.13l2.79-7.99c.23-.65.54-1.52.64-2.16.56-.19,1.25-.54,1.59-.75.05-.02.09-.03.14-.03s.09,0,.12.05c.05.14.11.3.16.44l3.2,9.11c.21.61.42,1.25.64,1.78.21.49.58.7,1.15.7h.1v.52c-.78-.03-1.57-.07-2.4-.07s-1.72.03-2.61.07v-.52h.19c.4,0,1.08-.07,1.08-.51,0-.23-.16-.7-.35-1.25l-.68-2.02h-3.95l-.56,1.81Zm2.54-7.72h-.04l-1.62,4.93h3.26l-1.6-4.93Z"/><path class="cls-1" d="m295.31,12.42c0-1.25-.64-1.27-1.34-1.27h-.21v-.52c.75,0,1.67.07,2.77.07s1.92-.07,2.61-.07v.52h-.21c-.7,0-1.39.02-1.39,1.27v6.01c0,2.21.82,3.75,3.31,3.75,2.3,0,3.31-1.46,3.31-3.81v-5.94c0-1.25-.66-1.27-1.25-1.27h-.35v-.52c.7,0,1.41.07,2.11.07s1.34-.07,2.02-.07v.52h-.37c-.47,0-1.11.02-1.11,1.27v5.56c0,3.94-2.09,5.07-4.69,5.07-3.34,0-5.21-1.22-5.21-4.34v-6.29Z"/><path class="cls-1" d="m316.05,13.21c-.12-1.13-.85-2.21-2.05-2.21-1.38,0-2.14.82-2.14,2.19,0,2.89,5.23,2.02,5.23,6.2,0,2.4-1.99,3.66-4.22,3.66-.98,0-1.92-.35-2.77-.78-.09-.89-.21-1.76-.3-2.65l.49-.1c.21,1.48,1.05,2.77,2.7,2.77,1.19,0,2.14-.75,2.14-1.99,0-3.08-5.12-2.12-5.12-6.32,0-2.26,1.6-3.61,3.85-3.61.49,0,1.97.19,2.51.26,0,.82.07,1.66.17,2.49l-.49.09Z"/><path class="cls-1" d="m322.78,11.5c-1.31,0-1.36.31-1.62,1.59h-.52c.07-.49.16-.98.21-1.48.07-.49.11-.97.11-1.48h.42c.14.52.58.51,1.05.51h8.99c.47,0,.91-.02.94-.54l.42.07c-.07.47-.14.94-.19,1.41-.04.47-.04.94-.04,1.41l-.52.19c-.03-.64-.12-1.67-1.29-1.67h-2.86v9.27c0,1.34.61,1.5,1.45,1.5h.33v.52c-.68,0-1.9-.07-2.84-.07-1.05,0-2.27.07-2.94.07v-.52h.33c.96,0,1.45-.09,1.45-1.46v-9.3h-2.86Z"/><path class="cls-1" d="m337.55,12.48c0-1.27-.7-1.32-1.24-1.32h-.31v-.52c.56,0,1.64.07,2.7.07s1.88-.07,2.8-.07c2.19,0,4.14.59,4.14,3.07,0,1.57-1.04,2.53-2.42,3.07l2.98,4.46c.49.73.84.94,1.69,1.05v.52c-.57,0-1.13-.07-1.71-.07-.54,0-1.1.07-1.64.07-1.34-1.76-2.49-3.64-3.62-5.64h-1.15v3.73c0,1.34.63,1.39,1.43,1.39h.31v.52c-.99,0-2-.07-3-.07-.84,0-1.66.07-2.53.07v-.52h.31c.64,0,1.24-.3,1.24-.94v-8.85Zm2.23,4.04h.85c1.74,0,2.68-.66,2.68-2.72,0-1.55-.99-2.54-2.54-2.54-.52,0-.75.05-.99.07v5.19Z"/><path class="cls-1" d="m353.34,20.3c-.17.59-.38,1.05-.38,1.36,0,.52.73.61,1.31.61h.19v.52c-.7-.03-1.41-.07-2.11-.07-.63,0-1.25.03-1.88.07v-.52h.11c.68,0,1.25-.4,1.52-1.13l2.79-7.99c.23-.65.54-1.52.64-2.16.56-.19,1.25-.54,1.59-.75.05-.02.09-.03.14-.03s.09,0,.12.05c.05.14.11.3.16.44l3.2,9.11c.21.61.42,1.25.64,1.78.21.49.58.7,1.15.7h.1v.52c-.78-.03-1.57-.07-2.4-.07s-1.72.03-2.61.07v-.52h.19c.4,0,1.08-.07,1.08-.51,0-.23-.16-.7-.35-1.25l-.68-2.02h-3.95l-.56,1.81Zm2.54-7.72h-.04l-1.62,4.93h3.26l-1.6-4.93Z"/><path class="cls-1" d="m369.1,21.08c0,.7.49.91,1.05.98.71.05,1.5.05,2.3-.03.73-.09,1.36-.51,1.67-.94.28-.38.44-.87.54-1.25h.5c-.19.99-.43,1.97-.64,2.96-1.53,0-3.07-.07-4.6-.07s-3.07.07-4.6.07v-.52h.24c.63,0,1.31-.09,1.31-1.17v-8.95c0-.91-.68-.99-1.31-.99h-.24v-.52c.92,0,1.83.07,2.75.07s1.76-.07,2.65-.07v.52h-.44c-.66,0-1.18.02-1.18.94v8.99Z"/><path class="cls-1" d="m378.94,22.26h.24c.63,0,1.29-.09,1.29-.99v-9.13c0-.91-.66-.99-1.29-.99h-.24v-.52c.68,0,1.72.07,2.58.07s1.92-.07,2.73-.07v.52h-.24c-.63,0-1.29.09-1.29.99v9.13c0,.91.66.99,1.29.99h.24v.52c-.84,0-1.88-.07-2.75-.07s-1.88.07-2.56.07v-.52Z"/><path class="cls-1" d="m390.72,20.3c-.17.59-.38,1.05-.38,1.36,0,.52.73.61,1.31.61h.19v.52c-.7-.03-1.41-.07-2.11-.07-.63,0-1.25.03-1.88.07v-.52h.11c.68,0,1.25-.4,1.52-1.13l2.79-7.99c.23-.65.54-1.52.64-2.16.56-.19,1.25-.54,1.59-.75.05-.02.09-.03.14-.03s.09,0,.12.05c.05.14.11.3.16.44l3.2,9.11c.21.61.42,1.25.64,1.78.21.49.58.7,1.15.7h.1v.52c-.78-.03-1.57-.07-2.4-.07s-1.72.03-2.61.07v-.52h.19c.4,0,1.08-.07,1.08-.51,0-.23-.16-.7-.35-1.25l-.68-2.02h-3.95l-.56,1.81Zm2.54-7.72h-.04l-1.62,4.93h3.26l-1.6-4.93Z"/><path class="cls-1" d="m9.55,0h32.96l.11.23c-30.52,13.96-9.33,41.32,8.71,10.51l.11.11-8.93,34.82h-.23c-1.98-26.4-30.41-25.72-32.45-.34h-.28L0,13.51l.34-.06C22.72,39.63,36.69,15.32,9.5.17l.06-.17Z"/></svg>