<svg xmlns="http://www.w3.org/2000/svg" viewBox="0 0 840.5 176.18"><defs><style>.cls-1{fill:#231f20;}.cls-2,.cls-3{fill:none;stroke:#59c5c7;stroke-width:5.36px;}.cls-3{stroke-linejoin:round;}</style></defs><g id="Layer_2" data-name="Layer 2"><g id="Layer_1-2" data-name="Layer 1"><path class="cls-1" d="M479.19,172H492c11.87,0,19.86-7.2,19.86-19.81s-8-19.75-19.86-19.75H479.19V172Zm3.89-3.49V135.9h8.49c9.68,0,16.21,5.74,16.21,16.26s-6.47,16.32-16.21,16.32ZM518,172h3.82V160a18.73,18.73,0,0,1,.79-5.51c1.24-4.17,4.22-7.32,8.21-7.32a9.83,9.83,0,0,1,1.41.11v-3.77a8,8,0,0,0-1.52-.16c-4.44,0-7.59,3.26-8.94,7.54h-.12a21.61,21.61,0,0,0,.12-2.26v-5H518V172Zm17.16-7.71c0,5.63,4.89,8.38,9.62,8.38a10.21,10.21,0,0,0,9.45-6.13h.11a22.94,22.94,0,0,0-.11,2.36V172h3.66V153.85c0-7.09-3.77-10.86-10.58-10.86a16.24,16.24,0,0,0-10.07,3.21l1.8,2.92a13.78,13.78,0,0,1,8-2.7c4.05,0,7,1.86,7,7.32v.73h-1.57c-4.9,0-17.33.23-17.33,9.79Zm3.93-.23c0-6.24,8.89-6.41,13.34-6.41h1.63v1.24c0,4.89-3.26,10.52-8.66,10.52-4.22,0-6.31-2.7-6.31-5.35ZM566.18,172H570V158.58a16.51,16.51,0,0,1,.4-3.77c1.18-4.33,4.67-8.33,9.28-8.33,5.35,0,6,4.16,6,8.44V172h3.83V158.58a13.31,13.31,0,0,1,.51-4.11c1.07-4.16,4.61-8,8.94-8,5.18,0,6.14,3.83,6.14,8.44V172h3.82V154c0-7-2.53-11-9.39-11a11.51,11.51,0,0,0-10.41,7.09H589c-.84-4.67-3.54-7.09-8.77-7.09A11.57,11.57,0,0,0,570,150.14h-.12a21.53,21.53,0,0,0,.12-2.25v-4.22h-3.77V172Zm48.66-7.71c0,5.63,4.9,8.38,9.63,8.38a10.23,10.23,0,0,0,9.45-6.13H634a22.94,22.94,0,0,0-.11,2.36V172h3.66V153.85c0-7.09-3.77-10.86-10.58-10.86a16.24,16.24,0,0,0-10.07,3.21l1.8,2.92a13.78,13.78,0,0,1,8-2.7c4,0,7,1.86,7,7.32v.73h-1.58c-4.89,0-17.33.23-17.33,9.79Zm3.94-.23c0-6.24,8.89-6.41,13.34-6.41h1.63v1.24c0,4.89-3.26,10.52-8.67,10.52-4.22,0-6.3-2.7-6.3-5.35Zm38.71,3.55A17.45,17.45,0,0,0,670,172.64c7.43,0,12-4.78,12-10.69,0-13-19.75-10.29-19.75-19.69,0-3.49,3.27-6.81,8.33-6.81a13.49,13.49,0,0,1,8.67,3.38l1.91-3.26a15.33,15.33,0,0,0-10.58-3.83c-7.31,0-12.32,4.95-12.32,10.63,0,12.27,19.75,9.74,19.75,19.7,0,4.27-3.55,6.86-7.88,6.86a15.45,15.45,0,0,1-10.35-4.33l-2.31,3ZM687,157.85c0,8.77,6.47,14.79,14.85,14.79a15.1,15.1,0,0,0,11-4.44l-1.74-3a12.47,12.47,0,0,1-9.06,4A11,11,0,0,1,691,157.85c0-6.76,4.84-11.37,11-11.37a12,12,0,0,1,8.27,3.43l2-2.87s-3.44-4-10.36-4A14.46,14.46,0,0,0,687,157.85ZM719.33,172h3.82V158.41a13.22,13.22,0,0,1,.45-3.77,10.75,10.75,0,0,1,10.3-8c5.46,0,6.13,3.94,6.13,8.39v17h3.83V154c0-7-2.48-11-9.46-11a12.11,12.11,0,0,0-11.25,7H723s.11-1,.11-2.31V132.41h-3.82V172ZM750,157.68A15,15,0,1,0,765,143a14.78,14.78,0,0,0-15,14.69Zm3.94,0a11,11,0,1,1,22.06,0,11,11,0,1,1-22.06,0Zm30.5,0a15,15,0,1,0,15-14.69,14.77,14.77,0,0,0-15,14.69Zm3.94,0a11,11,0,1,1,22.05,0,11.16,11.16,0,0,1-11,11.53c-6.07,0-11-5-11-11.53Zm32.29,7.59c0,6.19,4.17,6.92,6.53,6.92a9.77,9.77,0,0,0,1.4-.11v-3.43s-.45,0-.95,0c-1.46,0-3.15-.56-3.15-4.27v-32h-3.83v32.86Z"/><path class="cls-1" d="M479.19,113h3.89V84.56c0-2.09-.34-5.35-.34-5.35h.11s1.91,3.38,3.27,5.35L506.31,113h3.77V73.47H506.2v28.47c0,2.08.34,5.35.34,5.35h-.11s-1.92-3.38-3.27-5.35L483,73.47h-3.77V113ZM517.9,98.9c0,8.72,6.36,14.8,14.8,14.8a16.23,16.23,0,0,0,10.47-3.94l-1.75-2.92a13.15,13.15,0,0,1-8.61,3.43c-5.85,0-10.8-3.94-11-11.2h21.72s.11-1.29.11-2c0-7-4-13-11.81-13-7.65,0-14,5.57-14,14.85Zm4.11-3c.9-5.68,5-8.66,9.73-8.66,4.22,0,7.83,2.75,8,8.66ZM557.46,113h4.16l6.92-20.14c.45-1.4.84-3,.84-3h.12s.39,1.64.9,3L577.32,113h4.16l9.57-28.3h-4l-6.87,21.1c-.45,1.41-.84,3-.84,3h-.12s-.39-1.69-.84-3l-7-21h-3.77l-7,21c-.45,1.35-.85,3-.85,3h-.11s-.39-1.69-.84-3l-6.87-21.1h-4.05l9.57,28.3Zm47.6,0h28.18v-3.48H612.76c-1.91,0-2.92.11-2.92.11v-.11a35.78,35.78,0,0,0,2.81-3.6l20.43-29.71V73.47h-27V77h19.25a28.27,28.27,0,0,0,2.87-.11V77s-1.3,1.52-2.76,3.6l-20.42,29.71V113ZM638.87,98.9c0,8.72,6.36,14.8,14.8,14.8a16.19,16.19,0,0,0,10.46-3.94l-1.74-2.92a13.15,13.15,0,0,1-8.61,3.43c-5.85,0-10.8-3.94-11-11.2h21.72s.11-1.29.11-2c0-7-4-13-11.82-13-7.65,0-14,5.57-14,14.85Zm4.11-3c.9-5.68,5-8.66,9.73-8.66,4.22,0,7.82,2.75,8,8.66Zm27.23,9.4c0,5.62,4.89,8.38,9.62,8.38a10.21,10.21,0,0,0,9.45-6.13h.11a22.69,22.69,0,0,0-.11,2.36V113h3.66V94.91c0-7.09-3.77-10.86-10.58-10.86a16.24,16.24,0,0,0-10.07,3.21l1.8,2.92a13.78,13.78,0,0,1,8-2.7c4,0,7,1.86,7,7.32v.73h-1.57c-4.9,0-17.33.22-17.33,9.79Zm3.94-.23c0-6.24,8.89-6.41,13.33-6.41h1.63v1.24c0,4.89-3.26,10.52-8.66,10.52-4.22,0-6.3-2.7-6.3-5.35Zm27.9,1.24c0,6.19,4.17,6.92,6.53,6.92a10,10,0,0,0,1.41-.11v-3.43s-.45.05-1,.05c-1.46,0-3.15-.56-3.15-4.27v-32h-3.83v32.86Zm12.44-1c0,5.62,4.89,8.38,9.62,8.38a10.21,10.21,0,0,0,9.45-6.13h.11a22.69,22.69,0,0,0-.11,2.36V113h3.66V94.91c0-7.09-3.77-10.86-10.58-10.86a16.24,16.24,0,0,0-10.07,3.21l1.8,2.92a13.78,13.78,0,0,1,8-2.7c4,0,7,1.86,7,7.32v.73h-1.57c-4.9,0-17.33.22-17.33,9.79Zm3.94-.23c0-6.24,8.89-6.41,13.33-6.41h1.63v1.24c0,4.89-3.26,10.52-8.66,10.52-4.22,0-6.3-2.7-6.3-5.35ZM746.61,113h3.83V99.47a13.88,13.88,0,0,1,.45-3.83,10.76,10.76,0,0,1,10.3-8c5.45,0,6.13,3.94,6.13,8.38v17h3.82V95c0-7-2.47-11-9.45-11a12.07,12.07,0,0,0-11.31,7.14h-.11s.11-1,.11-2.25V84.72h-3.77V113Zm32.07-14.17c0,8.77,4.73,14.85,12.33,14.85,7.42,0,9.73-5.68,9.73-5.68h.11a16.19,16.19,0,0,0-.11,2v3h3.71V73.47h-3.82V87.26a20.65,20.65,0,0,0,.11,2.13h-.11a10,10,0,0,0-9.23-5.34c-7.43,0-12.72,5.85-12.72,14.8Zm3.94,0c0-7.15,4.11-11.37,9.12-11.37,6.07,0,9,5.63,9,11.37,0,8-4.45,11.42-9.17,11.42-5.29,0-9-4.45-9-11.42Z"/><path class="cls-1" d="M478.89,51.4H489.2V18.1H502V9.26H466.1V18.1h12.79V51.4Zm18.56-15.09c0,9.49,7.67,15.8,17.22,15.8s17.21-6.31,17.21-15.8-7.67-16-17.27-16-17.16,6.42-17.16,16Zm10.32,0c0-4.59,3.18-7.48,6.9-7.48s6.89,2.89,6.89,7.48-3.18,7.31-6.89,7.31-6.9-2.77-6.9-7.31Zm30.12-19.09h10v-8h-10v8Zm-.12,34.18H548V21.05h-10.2V51.4Zm40.14,0h11.61l5.31-21.28a36.89,36.89,0,0,0,.82-4.95h.12a36.89,36.89,0,0,0,.82,4.95L601.9,51.4h11.49L624.06,9.26H613.39l-5.77,26.35a24.41,24.41,0,0,0-.53,4.42H607a23.24,23.24,0,0,0-.71-4.42L600,9.26h-8.31l-6.48,26.35a23.24,23.24,0,0,0-.71,4.42h-.12a24.41,24.41,0,0,0-.53-4.42L578.5,9.26H567.65L577.91,51.4Zm51.69,0h10.2V38a11.82,11.82,0,0,1,.53-3.89,6.13,6.13,0,0,1,6.07-4.48c2.24,0,3.36,1.18,3.36,4V51.4H660V31.72c0-8.55-4.78-11.38-10.91-11.38a10.44,10.44,0,0,0-9.25,4.83h-.12a25.48,25.48,0,0,0,.12-2.59V9.26H629.6V51.4Zm35.78-9.07c0,6,4.66,9.78,10.31,9.78,6.37,0,8.61-4.42,8.61-4.42h.12a15.72,15.72,0,0,0-.12,1.89V51.4h9.31V32.72c0-7.72-5.12-12.38-13.67-12.38a22.93,22.93,0,0,0-12.73,3.95l3.53,7.19s4.37-2.89,8.2-2.89c2.53,0,4.48.83,4.48,3.36v.53H683c-4.71,0-17.62,1-17.62,9.85Zm10.26-.54c0-2.53,3.71-3.47,7-3.47h.94V39c0,2.47-2.35,5.36-5,5.36-2,0-2.88-1.12-2.88-2.54Zm25.64,9.61h10.19V39.61h3.19l6.42,11.79h11.61L722.55,35v-.12l8.9-13.79H720.37l-6,10h-2.89V9.26H701.28V51.4Zm33.59-9.07c0,6,4.66,9.78,10.32,9.78,6.36,0,8.6-4.42,8.6-4.42h.12a15.72,15.72,0,0,0-.12,1.89V51.4h9.32V32.72c0-7.72-5.13-12.38-13.68-12.38a23,23,0,0,0-12.73,3.95l3.54,7.19s4.36-2.89,8.19-2.89c2.54,0,4.48.83,4.48,3.36v.53h-.41c-4.72,0-17.63,1-17.63,9.85Zm10.26-.54c0-2.53,3.71-3.47,7-3.47H753V39c0,2.47-2.36,5.36-5,5.36-2,0-2.89-1.12-2.89-2.54Zm23.34.54c0,6,4.66,9.78,10.32,9.78,6.36,0,8.6-4.42,8.6-4.42h.12a15.72,15.72,0,0,0-.12,1.89V51.4h9.31V32.72c0-7.72-5.12-12.38-13.67-12.38a22.93,22.93,0,0,0-12.73,3.95l3.53,7.19s4.37-2.89,8.2-2.89c2.53,0,4.48.83,4.48,3.36v.53h-.41c-4.72,0-17.63,1-17.63,9.85Zm10.26-.54c0-2.53,3.71-3.47,6.95-3.47h1V39c0,2.47-2.36,5.36-5,5.36-2,0-2.89-1.12-2.89-2.54Zm25.64,9.61h10.19V39.91a13.91,13.91,0,0,1,.53-4.13c1.48-4.54,5.43-5.3,7.84-5.3a11.37,11.37,0,0,1,2.07.17v-10a7.38,7.38,0,0,0-1.18-.11c-4.54,0-8.37,3.41-9.67,7.54H814a15.72,15.72,0,0,0,.12-1.89V21.05h-9.78V51.4Zm26-34.18h10v-8h-10v8ZM830.3,51.4h10.2V21.05H830.3V51.4Z"/><path class="cls-2" d="M53.05,171.07H93.67V39.93H144V5.11H2.68V39.93H53.05V171.07Zm313.67,0h40.62V5.11H366.72v166Z"/><path class="cls-3" d="M278.26,143.28c14-4.68,37.35-21.16,37.35-54,0-49.43-35.94-86.58-83.49-86.58s-83.49,37.93-83.49,86.58c0,47.24,35.94,84.24,83.49,84.24a89.09,89.09,0,0,0,14.29-1.33c-27.88-3.84-68.25-29.18-68.25-82.91,0-34,24.39-59.12,54-59.12s53.23,25.14,53.23,59.12c0,26.86-15.68,48.15-37.91,54.75,0,0,13.64,5,30.82-.73ZM246.34,32.18c-22.23,6.6-37.92,27.88-37.92,54.75,0,34,23.66,59.11,53.24,59.11,26.85,0,53.93-22.24,53.93-56.45,0-52-36.73-80.65-68.23-85.58a89.22,89.22,0,0,1,14.3-1.33c47.54,0,83.49,37,83.49,84.25,0,48.64-35.95,86.57-83.49,86.57s-83.49-35.36-83.49-84c0-34.95,24.92-59.32,54-59.32a44.59,44.59,0,0,1,14.22,2Z"/></g></g></svg>