<svg width="710" height="376" viewBox="0 0 710 376" fill="none" xmlns="http://www.w3.org/2000/svg">
<rect width="708" height="374" transform="translate(1 1)" fill="#F3F6FF"/>
<rect x="0.5" y="0.5" width="709" height="375" rx="10.5" stroke="#D9D9D9"/>
<g clip-path="url(#clip0_470_653)">
<path fill-rule="evenodd" clip-rule="evenodd" d="M432.264 153.605L432.231 205.337C432.231 210.268 431.598 215.066 429.8 219.695C428.589 222.782 426.725 225.566 424.339 227.854C421.952 230.142 419.1 231.88 415.981 232.947C410.453 235.094 404.659 235.43 398.798 235.128C394.212 235.002 389.697 233.965 385.511 232.075C382.415 230.638 379.647 228.574 377.378 226.011C375.109 223.448 373.389 220.442 372.324 217.179L372.125 216.575H388.175L388.441 216.844C390.872 219.335 394.085 220.9 397.532 221.272C401.295 221.887 405.144 221.681 408.821 220.668C411.221 220.145 413.378 218.826 414.948 216.922C416.517 215.019 417.408 212.641 417.479 210.168C417.612 208.524 417.646 206.88 417.546 205.135L416.98 205.672C411.618 210.906 405.092 212.617 397.799 212.147C384.745 211.342 374.222 200.439 372.557 187.657C371.625 180.612 372.058 173.667 375.321 167.226C377.202 163.123 380.11 159.583 383.759 156.954C387.408 154.325 391.672 152.697 396.134 152.23C399.642 151.763 403.208 152.06 406.592 153.102C409.976 154.144 413.098 155.906 415.748 158.268L417.679 159.946V153.572H432.264V153.605ZM682.014 153.538L665.331 190.341L650.08 153.538H635.194L657.372 207.819L645.451 233.685L660.536 233.719L696.999 153.538H682.014ZM486.443 155.014C480.731 152.331 474.363 151.398 468.128 152.33C463.197 152.838 458.485 154.638 454.459 157.552C450.434 160.466 447.236 164.391 445.185 168.937C442.185 175.153 441.296 182.19 442.654 188.965C443.415 194.341 445.688 199.384 449.205 203.499C452.723 207.613 457.337 210.626 462.501 212.181C468.062 214.093 473.823 214.126 479.617 213.254C483.533 212.732 487.296 211.388 490.664 209.307C494.031 207.227 496.927 204.457 499.164 201.177L499.364 200.841L487.043 195.037L486.71 195.373C484.575 197.387 482.03 198.907 479.252 199.828C476.474 200.75 473.531 201.049 470.626 200.707C467.352 200.49 464.232 199.228 461.718 197.105C459.203 194.982 457.425 192.107 456.64 188.898L456.274 187.187H503.227L503.26 186.65C503.393 182.692 503.193 178.766 502.261 174.908C501.32 170.59 499.403 166.549 496.66 163.099C493.917 159.648 490.421 156.882 486.443 155.014ZM594.602 168.299C598.558 166.046 603.154 165.205 607.644 165.911C612.135 166.617 616.257 168.83 619.344 172.191L631.498 165.381C628.221 160.549 623.598 156.802 618.211 154.612C612.351 152.163 606.223 151.592 599.896 152.33C592.703 153.028 585.961 156.176 580.782 161.254C577.181 164.63 574.495 168.876 572.98 173.591C571.464 178.305 571.17 183.332 572.124 188.194C572.887 193.751 575.234 198.966 578.881 203.206C582.528 207.446 587.318 210.529 592.67 212.08C598.331 213.959 604.126 214.126 609.986 213.422C614.083 212.954 618.044 211.658 621.631 209.612C625.219 207.566 628.36 204.811 630.865 201.512L619.41 193.595C617.371 195.938 614.814 197.767 611.945 198.932C609.076 200.097 605.976 200.568 602.894 200.304C600.516 200.288 598.168 199.765 596.005 198.77C593.841 197.776 591.911 196.332 590.339 194.534C588.879 192.793 587.787 190.771 587.129 188.591C586.47 186.41 586.26 184.118 586.51 181.853C586.603 179.087 587.395 176.391 588.811 174.019C590.227 171.647 592.22 169.679 594.602 168.299ZM320.31 132.839L289.973 212.214L305.491 212.248L311.918 195.876H344.019L350.246 212.248H365.798L335.428 132.839H320.31ZM187.676 153.538L207.656 181.316L185.578 212.248L202.328 212.214L224.506 181.35L204.526 153.504L187.676 153.538ZM183.147 153.538H166.264L186.244 181.316L164.166 212.248L180.916 212.214L203.094 181.35L183.147 153.504V153.538ZM526.703 153.605V159.51L527.536 158.872C530.533 156.457 533.63 154.209 537.392 153.102C545.251 150.754 552.377 152.095 558.505 157.866C561.335 160.55 562.767 164.005 563.366 167.83C563.699 169.809 563.833 171.855 563.833 173.835C563.899 186.315 563.866 212.181 563.866 212.181H549.38C549.38 212.181 549.38 191.649 549.314 181.954C549.314 179.102 549.047 176.25 548.648 173.432C547.982 169.071 545.085 166.152 541.122 165.615C538.659 165.24 536.142 165.685 533.953 166.884C531.765 168.084 530.026 169.971 529.001 172.258C527.603 175.069 526.884 178.172 526.903 181.316L526.736 212.181H512.218V153.605H526.703ZM414.749 193.461C413.219 195.399 411.223 196.913 408.95 197.858C406.678 198.803 404.203 199.149 401.761 198.862C398.08 198.756 394.558 197.329 391.829 194.838C389.099 192.346 387.343 188.955 386.876 185.275C386.71 184.268 386.677 183.228 386.61 182.39C386.81 175.311 389.607 169.977 396.034 167.092C402.627 164.173 412.984 165.414 416.946 174.808C418.38 177.805 418.935 181.153 418.546 184.457C418.157 187.761 416.839 190.885 414.749 193.461ZM338.425 181.115L328.002 153.941L317.546 181.115H338.425ZM488.475 175.512C487.076 169.205 480.15 164.374 472.824 164.508C469.366 164.359 465.954 165.353 463.11 167.34C460.266 169.327 458.146 172.197 457.073 175.512H488.475Z" fill="#2CBFCC"/>
<path fill-rule="evenodd" clip-rule="evenodd" d="M150.114 155.014C144.401 152.333 138.033 151.4 131.799 152.33C126.872 152.835 122.161 154.63 118.136 157.538C114.111 160.445 110.911 164.364 108.855 168.903C105.854 175.119 104.964 182.157 106.325 188.932C107.084 194.313 109.361 199.361 112.885 203.477C116.409 207.592 121.032 210.601 126.205 212.147C131.766 214.059 137.527 214.093 143.288 213.221C147.204 212.699 150.967 211.354 154.334 209.273C157.702 207.193 160.598 204.423 162.835 201.143L163.035 200.808L150.714 195.004L150.381 195.339C148.246 197.353 145.701 198.873 142.923 199.795C140.145 200.716 137.201 201.016 134.297 200.674C131.023 200.456 127.903 199.194 125.388 197.071C122.874 194.948 121.095 192.074 120.311 188.865L119.978 187.154H166.864L166.931 186.617C167.064 182.658 166.864 178.733 165.932 174.875C164.991 170.557 163.074 166.516 160.331 163.065C157.587 159.615 154.091 156.848 150.114 154.981V155.014ZM93.937 132.939V212.248H79.6846L45.9184 160.248V212.181H31V132.872H45.1858L79.0852 185.074V132.939H93.9703H93.937ZM218.412 196.01L230.134 212.248H247.05L226.837 184.302L218.412 196.044V196.01ZM275.589 132V153.538H284.18V166.219H275.522L275.589 212.181H261.036V166.253H253.611V153.572H260.97V132H275.589ZM244.62 153.605H227.803L218.379 166.588L226.837 178.397L244.586 153.572L244.62 153.605ZM152.179 175.512C150.747 169.205 143.854 164.374 136.528 164.508C133.064 164.351 129.645 165.342 126.794 167.33C123.943 169.317 121.818 172.191 120.744 175.512H152.179Z" fill="#1E4068"/>
</g>
<defs>
<clipPath id="clip0_470_653">
<rect width="666" height="104" fill="white" transform="translate(31 132)"/>
</clipPath>
</defs>
</svg>
