<svg width="710" height="376" viewBox="0 0 710 376" fill="none" xmlns="http://www.w3.org/2000/svg">
<rect width="708" height="374" transform="translate(1 1)" fill="#F3F6FF"/>
<rect x="0.5" y="0.5" width="709" height="375" rx="10.5" stroke="#D9D9D9"/>
<path d="M69.8437 94H210.808L211.278 94.977C80.7496 154.277 171.376 270.499 248.53 139.622L249 140.089L210.808 288H209.824C201.356 175.856 79.7659 178.745 71.0412 286.556H69.8437L29 151.389L30.4541 151.134C126.17 262.343 185.917 159.077 69.6299 94.7221L69.8865 94H69.8437Z" fill="#231F20"/>
<path d="M327.326 113.862C327.326 110.355 325.397 110.217 323.909 110.217H323.055V108.781C324.598 108.781 327.574 108.975 330.495 108.975C333.416 108.975 335.676 108.781 338.211 108.781C344.246 108.781 349.619 110.41 349.619 117.258C349.619 121.592 346.754 124.243 342.951 125.734L351.163 138.048C352.513 140.063 353.477 140.643 355.82 140.947V142.383C354.249 142.383 352.706 142.189 351.108 142.189C349.619 142.189 348.076 142.383 346.588 142.383C342.896 137.523 339.727 132.333 336.613 126.811H333.444V137.109C333.444 140.809 335.18 140.947 337.384 140.947H338.239V142.383C335.511 142.383 332.727 142.189 329.972 142.189C327.657 142.189 325.397 142.383 323 142.383V140.947H323.854C325.618 140.947 327.271 140.119 327.271 138.352V113.917L327.326 113.862ZM333.471 125.016H335.814C340.609 125.016 343.199 123.194 343.199 117.506C343.199 113.227 340.471 110.493 336.2 110.493C334.767 110.493 334.133 110.631 333.471 110.687V125.016Z" fill="#231F20"/>
<path d="M366.76 140.918H367.421C369.158 140.918 370.978 140.669 370.978 138.182V112.954C370.978 110.439 369.158 110.218 367.421 110.218H366.76V108.781C369.682 108.781 374.672 108.975 378.725 108.975C382.778 108.975 387.741 108.781 391.022 108.781C390.911 110.854 390.966 114.032 391.104 116.159L389.671 116.546C389.423 113.424 388.844 110.909 383.798 110.909H377.126V123.51H382.833C385.728 123.51 386.335 121.879 386.638 119.282H388.072C387.961 121.161 387.934 123.04 387.934 124.919C387.934 126.798 387.989 128.566 388.072 130.418L386.638 130.722C386.335 127.82 386.197 125.941 382.888 125.941H377.126V137.16C377.126 140.282 379.911 140.282 382.999 140.282C388.761 140.282 391.297 139.896 392.759 134.397L394.109 134.728C393.475 137.271 392.896 139.84 392.483 142.383C389.423 142.383 383.881 142.189 379.552 142.189C375.224 142.189 369.517 142.383 366.787 142.383V140.946L366.76 140.918Z" fill="#231F20"/>
<path d="M423.249 115.876C422.914 112.742 420.88 109.747 417.535 109.747C413.689 109.747 411.571 112.021 411.571 115.82C411.571 123.835 426.147 121.422 426.147 133.014C426.147 139.67 420.601 143.164 414.386 143.164C411.655 143.164 409.035 142.193 406.666 141.001C406.415 138.533 406.081 136.12 405.83 133.652L407.196 133.375C407.781 137.479 410.122 141.056 414.72 141.056C418.037 141.056 420.685 138.976 420.685 135.538C420.685 126.996 406.415 129.659 406.415 118.011C406.415 111.744 410.874 108 417.145 108C418.511 108 422.635 108.527 424.14 108.721C424.14 110.995 424.336 113.325 424.614 115.626L423.249 115.876Z" fill="#231F20"/>
<path d="M438.65 140.918H439.331C441.118 140.918 442.989 140.669 442.989 138.182V112.954C442.989 110.439 441.118 110.218 439.331 110.218H438.65V108.781C441.656 108.781 446.789 108.975 450.958 108.975C455.126 108.975 460.231 108.781 463.605 108.781C463.492 110.854 463.549 114.032 463.691 116.159L462.216 116.546C461.961 113.424 461.365 110.909 456.176 110.909H449.313V123.51H455.183C458.161 123.51 458.785 121.879 459.097 119.282H460.571C460.458 121.161 460.429 123.04 460.429 124.919C460.429 126.798 460.486 128.566 460.571 130.418L459.097 130.722C458.785 127.82 458.643 125.941 455.24 125.941H449.313V137.16C449.313 140.282 452.177 140.282 455.353 140.282C461.28 140.282 463.889 139.896 465.392 134.397L466.782 134.728C466.129 137.271 465.534 139.84 465.108 142.383C461.961 142.383 456.261 142.189 451.809 142.189C447.356 142.189 441.486 142.383 438.679 142.383V140.946L438.65 140.918Z" fill="#231F20"/>
<path d="M482.828 113.862C482.828 110.355 480.899 110.217 479.411 110.217H478.557V108.781C480.1 108.781 483.076 108.975 485.997 108.975C488.918 108.975 491.178 108.781 493.713 108.781C499.748 108.781 505.121 110.41 505.121 117.258C505.121 121.592 502.256 124.243 498.453 125.734L506.665 138.048C508.015 140.063 508.979 140.643 511.322 140.947V142.383C509.751 142.383 508.208 142.189 506.61 142.189C505.121 142.189 503.578 142.383 502.09 142.383C498.398 137.523 495.229 132.333 492.115 126.811H488.946V137.109C488.946 140.809 490.682 140.947 492.886 140.947H493.741V142.383C491.013 142.383 488.229 142.189 485.474 142.189C483.159 142.189 480.899 142.383 478.502 142.383V140.947H479.356C481.12 140.947 482.773 140.119 482.773 138.352V113.917L482.828 113.862ZM488.973 125.016H491.316C496.111 125.016 498.701 123.194 498.701 117.506C498.701 113.227 495.973 110.493 491.701 110.493C490.269 110.493 489.635 110.631 488.973 110.687V125.016Z" fill="#231F20"/>
<path d="M531.413 110.222H530.294C528.505 110.222 527.751 110.942 527.751 111.58C527.751 111.829 527.946 112.494 528.198 113.131L536.528 134.603H536.612L544.355 114.516C544.942 113.02 544.998 112.162 544.998 111.801C544.998 110.416 543.544 110.222 541.895 110.222H541.056V108.781C542.762 108.781 544.606 108.975 546.703 108.975C548.212 108.975 549.778 108.781 551.175 108.781V110.222H550.7C549.834 110.222 548.911 110.361 548.129 111.912C547.737 112.577 540.637 130.392 537.478 138.399C536.835 139.978 536.081 141.585 535.494 143.164H533.705L521.349 112.965C520.427 110.693 519.393 110.222 517.268 110.222H516.793V108.781C519.281 108.781 521.825 108.975 524.284 108.975C526.744 108.975 530.071 108.781 531.496 108.781V110.222H531.413Z" fill="#231F20"/>
<path d="M560.553 140.918H561.214C562.951 140.918 564.771 140.669 564.771 138.182V112.954C564.771 110.439 562.951 110.218 561.214 110.218H560.553V108.781C563.475 108.781 568.465 108.975 572.518 108.975C576.571 108.975 581.534 108.781 584.815 108.781C584.704 110.854 584.759 114.032 584.897 116.159L583.464 116.546C583.216 113.424 582.637 110.909 577.591 110.909H570.919V123.51H576.626C579.521 123.51 580.128 121.879 580.431 119.282H581.865C581.754 121.161 581.727 123.04 581.727 124.919C581.727 126.798 581.782 128.566 581.865 130.418L580.431 130.722C580.128 127.82 579.99 125.941 576.681 125.941H570.919V137.16C570.919 140.282 573.704 140.282 576.792 140.282C582.554 140.282 585.09 139.896 586.552 134.397L587.902 134.728C587.268 137.271 586.689 139.84 586.276 142.383C583.216 142.383 577.674 142.189 573.345 142.189C569.017 142.189 563.31 142.383 560.58 142.383V140.946L560.553 140.918Z" fill="#231F20"/>
<path d="M323 203.726H323.659C325.388 203.726 327.199 203.477 327.199 200.988V175.739C327.199 173.222 325.388 173.001 323.659 173.001H323V171.563C325.113 171.563 327.775 171.756 330.465 171.756C333.155 171.756 335.927 171.563 338.122 171.563C346.164 171.563 349.155 174.937 349.155 179.113C349.155 184.035 344.654 186.137 340.455 186.911V186.994C345.67 186.856 351.131 189.788 351.131 195.623C351.131 200.822 346.054 205.164 339.851 205.164C337.464 205.164 334.445 204.97 331.481 204.97C328.516 204.97 325.086 205.164 323.027 205.164V203.726H323ZM333.319 186.275H335.652C339.714 186.275 342.733 184.533 342.733 180.025C342.733 174.494 339.44 173.277 336.174 173.277H333.292V186.275H333.319ZM333.319 199.329C333.319 202.703 333.951 203.422 337.628 203.422C341.69 203.422 344.709 200.103 344.709 195.816C344.709 190.479 341.169 188.018 336.393 188.018H333.347V199.329H333.319Z" fill="#231F20"/>
<path d="M367.06 198.159C366.58 199.806 365.986 201.089 365.986 201.955C365.986 203.406 368.05 203.657 369.69 203.657H370.227V205.108C368.248 205.024 366.24 204.913 364.261 204.913C362.48 204.913 360.727 204.996 358.945 205.108V203.657H359.228C361.151 203.657 362.762 202.541 363.526 200.503L371.415 178.205C372.065 176.391 372.941 173.963 373.224 172.177C374.808 171.647 376.759 170.67 377.72 170.084C377.861 170.028 377.974 170 378.116 170C378.257 170 378.37 170 378.455 170.14C378.596 170.53 378.766 170.977 378.908 171.367L387.956 196.792C388.549 198.494 389.143 200.28 389.765 201.759C390.359 203.127 391.405 203.713 393.017 203.713H393.328V205.164C391.122 205.08 388.889 204.969 386.542 204.969C384.195 204.969 381.65 205.052 379.162 205.164V203.713H379.699C380.83 203.713 382.753 203.517 382.753 202.289C382.753 201.648 382.301 200.336 381.763 198.801L379.841 193.164H368.672L367.089 198.215L367.06 198.159ZM374.242 176.614H374.157L369.577 190.373H378.794L374.27 176.614H374.242Z" fill="#231F20"/>
<path d="M432.656 195.703L432.74 195.62V177.542C432.74 173.584 429.979 173.002 428.501 173.002H427.441V171.563C429.728 171.563 431.959 171.757 434.246 171.757C436.254 171.757 438.234 171.563 440.214 171.563V173.002H439.489C437.453 173.002 435.166 173.39 435.166 179.12V201.073C435.166 202.762 435.222 204.45 435.473 205.945H433.632L408.617 178.262V198.139C408.617 202.347 409.453 203.786 413.19 203.786H414.027V205.226C411.935 205.226 409.844 205.032 407.752 205.032C405.66 205.032 403.318 205.226 401.143 205.226V203.786H401.812C405.158 203.786 406.19 201.516 406.19 197.668V177.376C406.19 174.663 403.959 173.03 401.784 173.03H401.143V171.591C402.983 171.591 404.88 171.784 406.72 171.784C408.17 171.784 409.593 171.591 411.043 171.591L432.656 195.758V195.703Z" fill="#231F20"/>
<path d="M448.809 203.695H449.469C451.202 203.695 453.018 203.441 453.018 200.898V175.104C453.018 172.533 451.202 172.307 449.469 172.307H448.809V170.838C450.734 170.838 453.595 171.036 456.044 171.036C458.63 171.036 461.711 170.838 463.664 170.838V172.307H463.086C461.656 172.307 459.152 172.364 459.152 175.104V200.898C459.152 203.667 461.656 203.695 463.086 203.695H463.664V205.164C461.711 205.164 458.63 204.966 456.044 204.966C453.595 204.966 450.734 205.164 448.809 205.164V203.695ZM468.258 170.81C470.322 170.81 472.33 171.007 474.393 171.007C476.456 171.007 478.657 170.81 480.83 170.81V172.279H480.198C477.034 172.279 474.448 174.482 472.495 176.658L464.93 185.077L477.254 200.983C478.272 202.452 479.785 203.695 481.628 203.695V205.164C480.033 205.164 478.355 205.051 476.731 205.051C475.191 205.051 473.705 205.164 472.165 205.164C471.725 204.232 470.349 202.254 469.661 201.463L459.317 188.185L469.386 176.658C470.019 176.008 471.505 174.341 471.505 173.296C471.505 172.307 469.441 172.251 468.836 172.251H468.313V170.781L468.258 170.81Z" fill="#231F20"/>
<path d="M523.481 170C533.669 170 541.797 176.378 541.797 186.667C541.797 197.787 533.916 205.164 523.728 205.164C513.54 205.164 505.852 198.203 505.852 187.832C505.852 177.46 513.54 170 523.508 170M524.222 203.029C533.504 203.029 535.124 194.765 535.124 187.721C535.124 180.677 531.335 172.108 523.399 172.108C515.023 172.108 512.552 179.651 512.552 186.112C512.552 194.765 516.479 203.029 524.222 203.029Z" fill="#231F20"/>
<path d="M562.605 185.522H569.515C571.95 185.522 572.658 184.028 572.658 181.622H574.131C574.046 183.365 573.932 185.052 573.932 186.766C573.932 188.757 573.989 190.666 574.131 192.657H572.658C572.658 189.974 571.865 187.928 568.722 187.928H562.605V200.207C562.605 202.917 564.87 202.944 567.334 202.944H567.985V204.383C565.663 204.383 562.322 204.189 559.49 204.189C556.913 204.189 553.911 204.383 551.957 204.383V202.944H552.637C554.421 202.944 556.29 202.696 556.29 200.207V174.957C556.29 172.441 554.421 172.22 552.637 172.22H551.957V170.781C554.959 170.781 560.084 170.975 564.247 170.975C568.41 170.975 573.536 170.781 576.878 170.781C576.793 172.856 576.821 176.036 576.962 178.138L575.49 178.525C575.207 175.206 574.414 172.883 570.506 172.883H562.605V185.494V185.522Z" fill="#231F20"/>
<path d="M330.931 261.94C330.461 263.587 329.88 264.871 329.88 265.736C329.88 267.187 331.898 267.438 333.5 267.438H334.025V268.89C332.091 268.806 330.129 268.694 328.195 268.694C326.454 268.694 324.741 268.778 323 268.89V267.438H323.304C325.183 267.438 326.758 266.322 327.504 264.285L335.214 241.986C335.849 240.172 336.706 237.744 336.982 235.958C338.529 235.428 340.436 234.451 341.376 233.865C341.514 233.809 341.624 233.781 341.762 233.781C341.901 233.781 342.011 233.781 342.094 233.921C342.232 234.312 342.398 234.758 342.536 235.149L351.379 260.573C351.959 262.275 352.539 264.061 353.147 265.541C353.727 266.908 354.75 267.494 356.325 267.494H356.601V268.945C354.446 268.862 352.263 268.75 349.969 268.75C347.676 268.75 345.217 268.834 342.757 268.945V267.494H343.282C344.388 267.494 346.267 267.299 346.267 266.071C346.267 265.429 345.824 264.117 345.299 262.582L343.42 256.945H332.506L330.958 261.996L330.931 261.94ZM337.949 240.396H337.839L333.362 254.154H342.37L337.949 240.396Z" fill="#231F20"/>
<path d="M366.379 239.514C366.379 236.057 364.6 236.001 362.654 236.001H362.07V234.563C364.155 234.563 366.713 234.756 369.771 234.756C372.829 234.756 375.109 234.563 377.027 234.563V236.001H376.443C374.497 236.001 372.579 236.057 372.579 239.514V256.138C372.579 262.251 374.858 266.511 381.78 266.511C388.174 266.511 390.982 262.473 390.982 255.972V239.542C390.982 236.084 389.147 236.029 387.507 236.029H386.534V234.591C388.48 234.591 390.454 234.784 392.4 234.784C394.346 234.784 396.125 234.591 398.016 234.591V236.029H396.987C395.68 236.029 393.901 236.084 393.901 239.542V254.921C393.901 265.82 388.091 268.945 380.863 268.945C371.578 268.945 366.379 265.571 366.379 256.941V239.542V239.514Z" fill="#231F20"/>
<path d="M424.03 241.657C423.695 238.524 421.661 235.529 418.317 235.529C414.471 235.529 412.352 237.803 412.352 241.602C412.352 249.616 426.928 247.204 426.928 258.796C426.928 265.451 421.382 268.945 415.167 268.945C412.436 268.945 409.816 267.975 407.447 266.782C407.197 264.314 406.862 261.901 406.611 259.433L407.977 259.156C408.562 263.26 410.903 266.838 415.502 266.838C418.818 266.838 421.466 264.758 421.466 261.319C421.466 252.778 407.197 255.44 407.197 243.793C407.197 237.525 411.656 233.781 417.926 233.781C419.292 233.781 423.417 234.308 424.922 234.502C424.922 236.776 425.117 239.106 425.395 241.408L424.03 241.657Z" fill="#231F20"/>
<path d="M443.011 236.876C439.385 236.876 439.247 237.735 438.527 241.279H437.088C437.282 239.922 437.531 238.565 437.669 237.181C437.863 235.824 437.974 234.495 437.974 233.083H439.136C439.524 234.523 440.741 234.495 442.042 234.495H466.925C468.226 234.495 469.443 234.44 469.526 233L470.689 233.194C470.495 234.495 470.301 235.797 470.163 237.098C470.052 238.399 470.052 239.701 470.052 241.002L468.613 241.528C468.53 239.756 468.281 236.904 465.043 236.904H457.127V262.571C457.127 266.281 458.815 266.724 461.14 266.724H462.053V268.164C460.171 268.164 456.795 267.97 454.193 267.97C451.287 267.97 447.91 268.164 446.056 268.164V266.724H446.969C449.626 266.724 450.982 266.475 450.982 262.682V236.932H443.066L443.011 236.876Z" fill="#231F20"/>
<path d="M483.712 239.761C483.712 236.173 481.738 236.032 480.214 236.032H479.34V234.563C480.919 234.563 483.966 234.761 486.957 234.761C489.948 234.761 492.261 234.563 494.856 234.563C501.035 234.563 506.536 236.23 506.536 243.236C506.536 247.672 503.602 250.384 499.709 251.909L508.116 264.51C509.499 266.572 510.486 267.166 512.884 267.476V268.945C511.276 268.945 509.696 268.748 508.06 268.748C506.536 268.748 504.957 268.945 503.433 268.945C499.653 263.973 496.408 258.662 493.22 253.011H489.976V263.549C489.976 267.335 491.753 267.476 494.01 267.476H494.885V268.945C492.092 268.945 489.242 268.748 486.421 268.748C484.051 268.748 481.738 268.945 479.283 268.945V267.476H480.158C481.963 267.476 483.656 266.629 483.656 264.821V239.818L483.712 239.761ZM490.004 251.175H492.402C497.311 251.175 499.963 249.31 499.963 243.49C499.963 239.111 497.17 236.314 492.797 236.314C491.33 236.314 490.681 236.456 490.004 236.512V251.175Z" fill="#231F20"/>
<path d="M527.848 261.94C527.379 263.587 526.798 264.871 526.798 265.736C526.798 267.187 528.816 267.438 530.418 267.438H530.943V268.89C529.009 268.806 527.047 268.694 525.113 268.694C523.372 268.694 521.659 268.778 519.918 268.89V267.438H520.222C522.101 267.438 523.676 266.322 524.422 264.285L532.132 241.986C532.767 240.172 533.624 237.744 533.9 235.958C535.447 235.428 537.354 234.451 538.294 233.865C538.432 233.809 538.542 233.781 538.68 233.781C538.819 233.781 538.929 233.781 539.012 233.921C539.15 234.312 539.316 234.758 539.454 235.149L548.296 260.573C548.877 262.275 549.457 264.061 550.065 265.541C550.645 266.908 551.668 267.494 553.243 267.494H553.519V268.945C551.364 268.862 549.181 268.75 546.887 268.75C544.594 268.75 542.134 268.834 539.675 268.945V267.494H540.2C541.305 267.494 543.185 267.299 543.185 266.071C543.185 265.429 542.742 264.117 542.217 262.582L540.338 256.945H529.424L527.876 261.996L527.848 261.94ZM534.867 240.396H534.757L530.28 254.154H539.288L534.867 240.396Z" fill="#231F20"/>
<path d="M571.84 263.407C571.84 265.343 573.202 265.924 574.759 266.117C576.732 266.256 578.928 266.256 581.151 266.034C583.18 265.786 584.931 264.624 585.793 263.435C586.571 262.384 587.016 261.029 587.294 259.978H588.684C588.156 262.716 587.489 265.426 586.905 268.164C582.652 268.164 578.372 267.97 574.119 267.97C569.867 267.97 565.587 268.164 561.334 268.164V266.726H562.001C563.752 266.726 565.642 266.477 565.642 263.49V238.739C565.642 236.222 563.752 236.001 562.001 236.001H561.334V234.563C563.891 234.563 566.42 234.756 568.977 234.756C571.535 234.756 573.869 234.563 576.343 234.563V236.001H575.12C573.286 236.001 571.84 236.056 571.84 238.601V263.463V263.407Z" fill="#231F20"/>
<path d="M598.842 266.726H599.513C601.274 266.726 603.12 266.477 603.12 263.988V238.739C603.12 236.222 601.274 236.001 599.513 236.001H598.842V234.563C600.743 234.563 603.651 234.756 606.056 234.756C608.46 234.756 611.424 234.563 613.689 234.563V236.001H613.018C611.256 236.001 609.411 236.25 609.411 238.739V263.988C609.411 266.505 611.256 266.726 613.018 266.726H613.689V268.164C611.34 268.164 608.432 267.97 606 267.97C603.567 267.97 600.743 268.164 598.842 268.164V266.726Z" fill="#231F20"/>
<path d="M631.778 261.94C631.308 263.587 630.728 264.871 630.728 265.736C630.728 267.187 632.745 267.438 634.348 267.438H634.873V268.89C632.939 268.806 630.977 268.694 629.043 268.694C627.302 268.694 625.589 268.778 623.848 268.89V267.438H624.152C626.031 267.438 627.606 266.322 628.352 264.285L636.061 241.986C636.697 240.172 637.553 237.744 637.83 235.958C639.377 235.428 641.284 234.451 642.223 233.865C642.361 233.809 642.472 233.781 642.61 233.781C642.748 233.781 642.859 233.781 642.942 233.921C643.08 234.312 643.246 234.758 643.384 235.149L652.226 260.573C652.806 262.275 653.387 264.061 653.995 265.541C654.575 266.908 655.597 267.494 657.172 267.494H657.449V268.945C655.293 268.862 653.11 268.75 650.817 268.75C648.523 268.75 646.064 268.834 643.605 268.945V267.494H644.13C645.235 267.494 647.114 267.299 647.114 266.071C647.114 265.429 646.672 264.117 646.147 262.582L644.268 256.945H633.353L631.806 261.996L631.778 261.94ZM638.797 240.396H638.686L634.21 254.154H643.218L638.797 240.396Z" fill="#231F20"/>
</svg>
